<svg xmlns="http://www.w3.org/2000/svg" width="30" height="30" viewBox="0 0 30 30">
  <g id="phone" transform="translate(-3 -3)">
    <path id="Path_12" data-name="Path 12" d="M33,18A15,15,0,0,0,18,3l0,3A12,12,0,0,1,30,18Z"/>
    <path id="Path_13" data-name="Path 13" d="M3,15V7.5A1.5,1.5,0,0,1,4.5,6H12a1.5,1.5,0,0,1,1.5,1.5v6A1.5,1.5,0,0,1,12,15H9A12,12,0,0,0,21,27V24a1.5,1.5,0,0,1,1.5-1.5h6A1.5,1.5,0,0,1,30,24v7.5A1.5,1.5,0,0,1,28.5,33H21A18,18,0,0,1,3,15Z"/>
    <path id="Path_14" data-name="Path 14" d="M26.314,14.556A8.986,8.986,0,0,1,27,18H24.3A6.3,6.3,0,0,0,18,11.7V9a9,9,0,0,1,8.315,5.556Z"/>
  </g>
</svg>
