<svg xmlns="http://www.w3.org/2000/svg" width="36" height="36" viewBox="0 0 36 36">
  <path id="telegram" d="M23.886,26.257l2.953-13.922a1.325,1.325,0,0,0-.211-1.266.915.915,0,0,0-1.035-.141L8.237,17.618a1.761,1.761,0,0,0-.794.5.433.433,0,0,0-.05.532,1.1,1.1,0,0,0,.643.392l4.44,1.386,10.306-6.489q.422-.281.643-.121.141.1-.08.3l-8.337,7.533-.321,4.58a1.289,1.289,0,0,0,.9-.442l2.17-2.089,4.5,3.315q1.286.723,1.627-.763ZM36,18a17.6,17.6,0,0,1-1.426,6.991,17.683,17.683,0,0,1-9.583,9.583,17.85,17.85,0,0,1-13.982,0,17.683,17.683,0,0,1-9.583-9.583,17.85,17.85,0,0,1,0-13.982,17.683,17.683,0,0,1,9.583-9.583,17.85,17.85,0,0,1,13.982,0,17.683,17.683,0,0,1,9.583,9.583A17.6,17.6,0,0,1,36,18Z"/>
</svg>
