<svg xmlns="http://www.w3.org/2000/svg" width="35.424" height="20.211" viewBox="0 0 35.424 20.211">
  <path id="vk" d="M35.945,4.869q.424,1.18-2.766,5.422-.443.59-1.2,1.568-.738.941-1.014,1.328a9.024,9.024,0,0,0-.563.913,1.206,1.206,0,0,0-.221.775,4.356,4.356,0,0,0,.24.636,2.621,2.621,0,0,0,.6.793q.425.406,1.051.977a.2.2,0,0,1,.092.074,18.393,18.393,0,0,1,3.523,4.076q.055.092.12.231a2.247,2.247,0,0,1,.129.489,1.437,1.437,0,0,1-.009.627.906.906,0,0,1-.461.507,2.15,2.15,0,0,1-1.088.231l-4.721.074a2.073,2.073,0,0,1-1.033-.092,4.454,4.454,0,0,1-.959-.406l-.369-.221A8.649,8.649,0,0,1,26,21.691q-.738-.793-1.263-1.429a6.106,6.106,0,0,0-1.125-1.07,1.169,1.169,0,0,0-1.042-.286,1.136,1.136,0,0,0-.148.065,1.633,1.633,0,0,0-.314.267,2.33,2.33,0,0,0-.4.544,3.773,3.773,0,0,0-.314.959,6.1,6.1,0,0,0-.12,1.429,1.861,1.861,0,0,1-.065.507,1.279,1.279,0,0,1-.138.341L21,23.11a1.469,1.469,0,0,1-.977.406h-2.12a8.383,8.383,0,0,1-2.693-.3,10.279,10.279,0,0,1-2.425-.977,22.289,22.289,0,0,1-1.9-1.217,10.628,10.628,0,0,1-1.3-1.063l-.461-.443q-.184-.184-.507-.553T7.3,17.281q-1-1.309-1.955-2.785T3.089,10.6Q1.789,8.19.682,5.588a1.467,1.467,0,0,1-.111-.5.6.6,0,0,1,.055-.3L.7,4.684a1.285,1.285,0,0,1,1.051-.35L6.8,4.3a1.981,1.981,0,0,1,.424.12,1.239,1.239,0,0,1,.3.157l.092.055a1.22,1.22,0,0,1,.443.59q.369.922.848,1.909t.756,1.5l.3.535q.535,1.107,1.033,1.918a9.534,9.534,0,0,0,.894,1.263,4.329,4.329,0,0,0,.768.71,1.182,1.182,0,0,0,.627.258,1.4,1.4,0,0,0,.5-.092.306.306,0,0,0,.092-.092,3.758,3.758,0,0,0,.221-.406,2.986,2.986,0,0,0,.249-.867q.083-.535.175-1.494a14.359,14.359,0,0,0,0-2.305,8.574,8.574,0,0,0-.166-1.346,3.537,3.537,0,0,0-.258-.848l-.111-.221a2.262,2.262,0,0,0-1.568-.793q-.24-.037.092-.443a2.187,2.187,0,0,1,.7-.553,12.086,12.086,0,0,1,4.408-.443,12.208,12.208,0,0,1,2.49.24,2.115,2.115,0,0,1,.618.249.99.99,0,0,1,.378.443,2.912,2.912,0,0,1,.194.59,4.218,4.218,0,0,1,.065.839q0,.535-.018,1.014t-.046,1.3q-.028.821-.028,1.522,0,.2-.018.775t-.009.885q.009.313.065.747a2.041,2.041,0,0,0,.212.719,1.227,1.227,0,0,0,.413.451q.148.037.314.074t.48-.2a6.7,6.7,0,0,0,.7-.636,9.514,9.514,0,0,0,.959-1.236q.572-.84,1.254-1.983a29.985,29.985,0,0,0,1.973-4.15,1.3,1.3,0,0,1,.184-.323.8.8,0,0,1,.2-.194l.074-.055.092-.046.24-.055.369-.009,5.311-.037a2.905,2.905,0,0,1,1.18.046,1.078,1.078,0,0,1,.572.3Z" transform="translate(-0.571 -3.409)"/>
</svg>
