<svg xmlns="http://www.w3.org/2000/svg" width="26.988" height="29.25" viewBox="0 0 26.988 29.25"><g transform="translate(202.988 -1225.75)"><path d="M0,9.919a1.959,1.959,0,0,0,1.37-.627,1.956,1.956,0,0,0,.56-1.4,1.957,1.957,0,0,0,.56,1.4,1.957,1.957,0,0,0,1.37.627,1.959,1.959,0,0,0-1.37.627,1.954,1.954,0,0,0-.56,1.4,1.957,1.957,0,0,0-.56-1.4A1.957,1.957,0,0,0,0,9.919ZM1.931,3.94A3.832,3.832,0,0,0,4.6,2.721,3.8,3.8,0,0,0,5.692,0a3.789,3.789,0,0,0,1.1,2.721A3.844,3.844,0,0,0,9.46,3.94a3.844,3.844,0,0,0-1.9.588A3.956,3.956,0,0,0,6.194,5.96a3.879,3.879,0,0,0-.5,1.935A3.818,3.818,0,0,0,4.6,5.162,3.827,3.827,0,0,0,1.931,3.94Zm2.756,8.946A2.874,2.874,0,0,0,6.7,11.971a2.86,2.86,0,0,0,.825-2.052,2.968,2.968,0,0,0,2.826,2.967,2.967,2.967,0,0,0-2.826,2.966A2.861,2.861,0,0,0,6.7,13.8a2.872,2.872,0,0,0-2.009-.915Zm5.66-3.94a2.852,2.852,0,0,0,2-.911,2.872,2.872,0,0,0,.817-2.056A2.974,2.974,0,0,0,16,8.945a2.88,2.88,0,0,0-2.009.911,2.847,2.847,0,0,0-.825,2.048,2.954,2.954,0,0,0-2.818-2.959Z" transform="translate(-192 1225.75)" fill="#fff"/><path d="M16.852,3.375a1.127,1.127,0,0,0-.2.018,14.733,14.733,0,0,0,2.053,29.229c.184.007.369,0,.551,0A14.706,14.706,0,0,0,31.3,26.373a1.136,1.136,0,0,0-.881-1.761A14.715,14.715,0,0,1,17.876,4.928a1.142,1.142,0,0,0-1.024-1.553Z" transform="translate(-207.489 1222.375)" fill="#f2cb05"/></g></svg>