<?xml version="1.0" encoding="UTF-8" standalone="no"?>
<svg
   xmlns:dc="http://purl.org/dc/elements/1.1/"
   xmlns:cc="http://creativecommons.org/ns#"
   xmlns:rdf="http://www.w3.org/1999/02/22-rdf-syntax-ns#"
   xmlns:svg="http://www.w3.org/2000/svg"
   xmlns="http://www.w3.org/2000/svg"
   xmlns:sodipodi="http://sodipodi.sourceforge.net/DTD/sodipodi-0.dtd"
   xmlns:inkscape="http://www.inkscape.org/namespaces/inkscape"
   width="210mm"
   height="297mm"
   viewBox="0 0 210 297"
   version="1.1"
   id="svg8"
   inkscape:version="1.0.2 (e86c870879, 2021-01-15, custom)"
   sodipodi:docname="logograblee.svg">
  <defs
     id="defs2" />
  <sodipodi:namedview
     id="base"
     pagecolor="#ffffff"
     bordercolor="#666666"
     borderopacity="1.0"
     inkscape:pageopacity="0.0"
     inkscape:pageshadow="2"
     inkscape:zoom="1.979899"
     inkscape:cx="349.27754"
     inkscape:cy="544.89238"
     inkscape:document-units="mm"
     inkscape:current-layer="layer1"
     inkscape:document-rotation="0"
     showgrid="false"
     inkscape:snap-center="true"
     inkscape:snap-object-midpoints="true"
     inkscape:snap-midpoints="true"
     showguides="false"
     inkscape:window-width="1566"
     inkscape:window-height="1033"
     inkscape:window-x="256"
     inkscape:window-y="0"
     inkscape:window-maximized="0" />
  <metadata
     id="metadata5">
    <rdf:RDF>
      <cc:Work
         rdf:about="">
        <dc:format>image/svg+xml</dc:format>
        <dc:type
           rdf:resource="http://purl.org/dc/dcmitype/StillImage" />
        <dc:title></dc:title>
      </cc:Work>
    </rdf:RDF>
  </metadata>
  <g
     inkscape:label="Layer 1"
     inkscape:groupmode="layer"
     id="layer1">
    <path
       id="rect835-1-8-6-4"
       style="fill:#cccccc;fill-opacity:1;stroke:#000000;stroke-width:0.0136572;stroke-linecap:round;stroke-linejoin:round;paint-order:markers fill stroke;stop-color:#000000"
       d="m 99.074829,126.30073 c 0.0118,0 0.0234,0.001 0.0176,5.2e-4 2.323881,-5.2e-4 4.209051,1.84726 4.209051,4.14287 0,2.29562 -1.83792,4.04939 -4.195771,4.06685 -3.49177,0.0175 -8.41734,2.32777 -8.46651,8.26145 l -5.3e-4,0.0638 c 2e-5,5.79106 4.99838,8.7128 8.52277,8.78706 2.087821,0.0409 4.140031,1.38748 4.140031,3.6831 -10e-6,2.29561 -1.88517,4.14388 -4.209051,4.14338 0.006,-5.2e-4 -0.006,5.1e-4 -0.0176,5.1e-4 -9.36579,0 -16.90595,-7.39257 -16.90595,-16.57503 0,-9.18246 7.54016,-16.57452 16.90595,-16.57452 z"
       sodipodi:nodetypes="scscsccscssss" />
    <path
       id="rect835-1-8-6"
       style="fill:#cccccc;fill-opacity:1;stroke:#000000;stroke-width:0.0136572;stroke-linecap:round;stroke-linejoin:round;paint-order:markers fill stroke;stop-color:#000000"
       d="m 72.731179,126.30021 c 0.0118,0 0.0234,10e-4 0.0176,5.2e-4 2.32388,-5.2e-4 4.20905,1.84726 4.20905,4.14287 0,2.29562 -1.83792,4.04939 -4.19577,4.06685 -3.49177,0.0175 -8.41734,2.32777 -8.46651,8.26145 l -5.3e-4,0.0638 c 2e-5,5.79106 4.99838,8.7128 8.52277,8.78706 2.08782,0.0409 4.14003,1.38748 4.14003,3.6831 -1e-5,2.29561 -1.88517,4.14388 -4.20905,4.14338 0.006,-5.2e-4 -0.006,5.1e-4 -0.0176,5.1e-4 -9.36579,0 -16.90595,-7.39257 -16.90595,-16.57503 0,-9.18246 7.54016,-16.57452 16.90595,-16.57452 z"
       sodipodi:nodetypes="scscsccscssss" />
    <rect
       style="fill:#bc5fd3;fill-opacity:1;stroke:none;stroke-width:0.272065;stroke-linecap:round;stroke-linejoin:round;stroke-miterlimit:4;stroke-dasharray:none;paint-order:markers fill stroke;stop-color:#000000"
       id="rect1421"
       width="87.614891"
       height="8.151721"
       x="46.422729"
       y="126.30073" />
    <path
       id="rect835"
       style="fill:#bc5fd3;fill-opacity:1;stroke:#000000;stroke-width:0.0136572;stroke-linecap:round;stroke-linejoin:round;paint-order:markers fill stroke;stop-color:#000000"
       d="m 87.064634,49.041407 c -4.68984,9.6e-4 -9.379599,0.004 -14.069425,0.004 0.006,6e-4 -21.115506,0.0393 -21.115506,0.0393 -9.74713,-0.0475 -16.885791,7.4868 -16.885791,16.66926 0,9.18246 7.540155,16.57419 16.905945,16.57419 0.0118,0 0.02389,-0.001 0.01809,-5.2e-4 2.32388,5.2e-4 4.208529,-1.84729 4.208529,-4.1429 0,-2.29562 -1.83777,-4.04892 -4.19561,-4.06642 -3.491769,-0.0175 -8.416979,-2.32783 -8.466149,-8.26151 l -5.17e-4,-0.0641 c 1e-5,-5.7609 4.945537,-8.68109 8.466666,-8.78447 H 59.9588 c -1.50164,2.47809 -2.364713,5.37494 -2.364713,8.47803 0,9.18245 7.539642,16.57418 16.905427,16.57418 0.01179,0 0.02389,-9.9e-4 0.01809,-5.1e-4 2.323878,5.1e-4 4.209045,-1.84728 4.209045,-4.1429 0,-2.29562 -1.83777,-4.04892 -4.195609,-4.06642 -3.491767,-0.0175 -8.417497,-2.32785 -8.466666,-8.26151 l -5.17e-4,-0.0641 c 1e-5,-4.83845 3.488724,-7.67183 6.692098,-8.51679 h 9.968389 c -1.60369,2.53587 -2.530599,5.53037 -2.530599,8.74571 0,9.18245 7.540169,16.57419 16.905939,16.57419 0.0114,-7e-5 0.0226,-9.8e-4 0.017,-5.2e-4 2.32389,5.2e-4 4.209046,-1.84729 4.209046,-4.1429 0,-2.29562 -1.837766,-4.04944 -4.195606,-4.06694 -3.49177,-0.0175 -8.4175,-2.32732 -8.46667,-8.26099 l -5.1e-4,-0.0646 c 1e-5,-5.7609 4.94605,-8.68109 8.46718,-8.78447 h 0.84336 v 3.94963 c 0,0.72904 0.0714,1.29216 0.21497,1.68982 0.1436,0.39213 0.4087,0.7099 0.7953,0.95291 0.39214,0.24301 0.88938,0.36432 1.491386,0.36432 0.34795,0 0.67944,-0.0659 0.99425,-0.19844 0.32034,-0.13255 0.62386,-0.32901 0.91106,-0.58859 v 0.82889 c 0,0.47498 -0.0412,0.78674 -0.12403,0.93586 -0.0828,0.14912 -0.25133,0.22376 -0.50539,0.22376 -0.35347,0 -0.5302,-0.24313 -0.5302,-0.72916 h -3.247346 c 0.0221,1.06042 0.35581,1.77008 1.00201,2.12907 0.64619,0.36452 1.502366,0.54674 2.568306,0.54674 0.86712,0 1.58501,-0.0994 2.15388,-0.29817 0.57439,-0.19331 1.0217,-0.47762 1.34204,-0.85318 0.32033,-0.37005 0.50581,-0.72075 0.55552,-1.05214 0.0552,-0.3369 0.0827,-1.07675 0.0827,-2.22001 v -5.68131 h 1.19269 v 8.20777 h 3.34708 v -4.34082 c 0,-1.06595 0.0335,-1.7454 0.0997,-2.03812 0.0663,-0.29824 0.24301,-0.5304 0.53021,-0.69609 0.2872,-0.16569 0.73725,-0.24856 1.3503,-0.24856 v -0.88418 h 0.62839 c -0.019,0.22806 -0.032,0.46877 -0.032,0.73535 v 0.73743 h 3.13986 v -1.15187 c 0,-0.13228 0.006,-0.21049 0.009,-0.32091 h 1.04439 c 0.004,0.10688 0.007,0.21931 0.007,0.34571 0,0.45841 -0.0384,0.76245 -0.11576,0.91158 -0.0773,0.14912 -0.66567,0.43891 -1.76475,0.86971 -1.02728,0.39766 -1.67105,0.74562 -1.93063,1.04386 -0.25958,0.29825 -0.38912,0.85863 -0.38912,1.68156 v 0.9033 c 0,1.11012 0.24313,1.83076 0.72915,2.16214 0.49155,0.32586 1.02997,0.48886 1.61541,0.48886 0.44736,0 0.83102,-0.0966 1.15135,-0.2899 0.32586,-0.19883 0.59095,-0.49464 0.7953,-0.88677 v 0.97772 h 3.25613 v -5.5175 c 0,-1.1574 -0.0263,-2.0348 -0.0734,-2.69027 h 1.22473 v 8.20777 h 3.13159 l 0.21549,-0.82838 c 0.28168,0.34243 0.59069,0.59928 0.9276,0.7705 0.34242,0.17121 0.71012,0.25683 1.10226,0.25683 0.54677,0 1.01879,-0.14379 1.41645,-0.43098 0.39765,-0.29272 0.64902,-0.6352 0.75395,-1.02733 0.11047,-0.39765 0.16537,-0.99921 0.16537,-1.80557 v -4.95422 c 0,-0.0713 -0.002,-0.10981 -0.003,-0.17674 h 1.10484 v 8.19589 h 3.4463 v -8.19589 h 1.15704 c -0.0367,0.30349 -0.0553,0.63561 -0.0553,0.99684 v 3.20601 c 0,0.8174 0.0582,1.44144 0.17415,1.87223 0.11598,0.42528 0.32291,0.81768 0.62115,1.17668 0.30377,0.35347 0.72637,0.63229 1.26763,0.83664 0.54125,0.20435 1.16529,0.30644 1.87223,0.30644 0.72904,0 1.33386,-0.10209 1.81436,-0.30644 0.48603,-0.20988 0.88615,-0.52215 1.20096,-0.93638 0.31481,-0.41422 0.51402,-0.80337 0.59686,-1.16789 0.0884,-0.36452 0.1323,-0.88646 0.1323,-1.56579 v -0.81184 h -3.17294 v 1.44953 c 0,0.54677 -0.0439,0.9167 -0.13229,1.11 -0.0828,0.18779 -0.25134,0.28216 -0.50539,0.28216 -0.20435,0 -0.34265,-0.0719 -0.41445,-0.21549 -0.0718,-0.1436 -0.10749,-0.46411 -0.10749,-0.96118 v -2.37764 h 4.33256 v -1.4583 c 0,-0.5406 -0.0322,-1.01857 -0.0961,-1.43558 h 1.14566 c -0.0367,0.30349 -0.0553,0.63561 -0.0553,0.99684 v 3.20601 c 0,0.8174 0.0582,1.44144 0.17415,1.87223 0.11598,0.42528 0.32291,0.81768 0.62115,1.17668 0.30377,0.35347 0.72637,0.63229 1.26762,0.83664 0.54126,0.20435 1.16529,0.30644 1.87224,0.30644 0.72904,0 1.33386,-0.10209 1.81436,-0.30644 0.48603,-0.20988 0.88615,-0.52215 1.20096,-0.93638 0.31481,-0.41422 0.51402,-0.80337 0.59686,-1.16789 0.0884,-0.36452 0.1323,-0.88646 0.1323,-1.56579 v -0.81184 h -3.17294 v 1.44953 c 0,0.54677 -0.0439,0.9167 -0.13229,1.11 -0.0829,0.18779 -0.25134,0.28216 -0.5054,0.28216 -0.20435,0 -0.34264,-0.0719 -0.41444,-0.21549 -0.0718,-0.1436 -0.10749,-0.46411 -0.10749,-0.96118 v -2.37764 h 4.33256 v -1.4583 c 0,-0.5406 -0.0322,-1.01857 -0.0961,-1.43558 h 4.32118 v 8.19589 h 3.24786 v -7.62176 c 0,-0.29395 0.006,-0.39391 0.009,-0.57413 h 1.05627 c 0.0122,0.3156 0.0196,0.70721 0.0196,1.21233 v 6.98356 h 3.24735 v -7.16598 c 0,-0.41827 0.008,-0.75355 0.0207,-1.02991 h 1.0604 c 0.0132,0.27584 0.0207,0.61147 0.0207,1.02991 v 7.16598 h 3.24786 v -7.81245 c 0,-0.13744 -0.004,-0.2577 -0.006,-0.38344 h 1.11363 c -0.0367,0.30349 -0.0553,0.63561 -0.0553,0.99684 v 3.20601 c 0,0.8174 0.0576,1.44144 0.17364,1.87223 0.11598,0.42528 0.32342,0.81768 0.62166,1.17668 0.30377,0.35347 0.72585,0.63229 1.26711,0.83664 0.54125,0.20435 1.16581,0.30644 1.87275,0.30644 0.72904,0 1.33386,-0.10209 1.81436,-0.30644 0.48603,-0.20988 0.88615,-0.52215 1.20096,-0.93638 0.31481,-0.41422 0.5135,-0.80337 0.59635,-1.16789 0.0884,-0.36452 0.13281,-0.88646 0.13281,-1.56579 v -0.81184 h -3.17293 v 1.44953 c 0,0.54677 -0.0444,0.9167 -0.13281,1.11 -0.0828,0.18779 -0.25134,0.28216 -0.5054,0.28216 -0.20435,0 -0.34213,-0.0719 -0.41393,-0.21549 -0.0718,-0.1436 -0.108,-0.46411 -0.108,-0.96118 v -2.37764 h 4.33307 v -1.4583 c 0,-0.58655 -0.039,-1.09736 -0.11421,-1.53841 v -7.74837 h -46.70929 c -14.06911,-0.11992 -28.13875,-0.12949 -42.208276,-0.1266 z m 14.258556,7.96592 h 0.99736 c 5.5e-4,0.0445 0.002,0.0825 0.002,0.13022 v 3.40496 c 0,0.6241 -0.0329,1.02474 -0.0992,1.20148 -0.0663,0.17674 -0.21006,0.2651 -0.43098,0.2651 -0.19331,0 -0.32011,-0.0719 -0.38086,-0.21549 -0.0607,-0.14912 -0.0915,-0.46912 -0.0915,-0.96066 v -3.69539 c 0,-0.0474 0.002,-0.0861 0.003,-0.13022 z m 23.52157,0 h 1.00872 c 0.003,0.10464 0.006,0.21411 0.006,0.33744 v 4.63125 c 0,0.65171 -0.0335,1.06333 -0.0997,1.23455 -0.0608,0.17121 -0.19579,0.25683 -0.40566,0.25683 -0.20435,0 -0.34265,-0.0829 -0.41445,-0.24857 -0.0663,-0.16569 -0.0992,-0.54436 -0.0992,-1.13533 v -4.73873 c 0,-0.12432 0.002,-0.2322 0.005,-0.33744 z m 13.36662,0.0119 h 0.96428 c 0.002,0.095 0.005,0.19069 0.005,0.30076 v 0.80357 h -0.9772 v -0.80357 c 0,-0.1244 0.006,-0.19579 0.008,-0.30076 z m 8.67389,0 h 0.96428 c 0.002,0.095 0.005,0.19069 0.005,0.30076 v 0.80357 h -0.97721 v -0.80357 c 0,-0.1244 0.006,-0.19579 0.008,-0.30076 z m 24.88634,0 h 0.9648 c 0.002,0.095 0.005,0.19069 0.005,0.30076 v 0.80357 h -0.97772 v -0.80357 c 0,-0.1244 0.006,-0.19579 0.008,-0.30076 z m -54.77702,2.9683 v 2.26187 c 0,0.55231 -0.0329,0.89478 -0.0992,1.02733 -0.0607,0.12703 -0.1963,0.19069 -0.40618,0.19069 -0.22092,0 -0.37019,-0.0829 -0.44751,-0.24857 -0.0718,-0.16569 -0.10749,-0.53338 -0.10749,-1.10225 0,-0.49708 0.0412,-0.87798 0.12402,-1.14309 0.0884,-0.2651 0.40065,-0.59385 0.93638,-0.98598 z m 35.01027,2.4939 v 2.73369 h 2.52697 v -2.73369 z" />
    <path
       id="rect835-1"
       style="fill:#cccccc;fill-opacity:1;stroke:#000000;stroke-width:0.0136572;stroke-linecap:round;stroke-linejoin:round;paint-order:markers fill stroke;stop-color:#000000"
       d="m -264.39694,1.2771936 c -0.0118,0 -0.0234,0.001 -0.0176,5.19e-4 -2.32388,-5.19e-4 -4.20905,1.847256 -4.20905,4.142871 0,2.295615 1.83792,4.04939 4.19577,4.066851 3.49177,0.01746 8.41734,2.3277694 8.46651,8.2614454 l 5.3e-4,0.06384 c -2e-5,5.791061 -4.99838,8.712801 -8.52277,8.787061 -2.08782,0.04085 -4.14003,1.387481 -4.14003,3.683096 1e-5,2.295615 1.88517,4.143885 4.20905,4.143379 -0.006,-5.19e-4 0.006,5.19e-4 0.0176,5.19e-4 9.36579,0 16.90595,-7.39257 16.90595,-16.57503 0,-9.1824604 -7.54016,-16.5745254 -16.90595,-16.5745254 z"
       sodipodi:nodetypes="scscsccscssss" />
    <path
       id="rect835-1-3-5"
       style="fill:#cccccc;fill-opacity:1;stroke:#000000;stroke-width:0.00881683;stroke-linecap:round;stroke-linejoin:round;paint-order:markers fill stroke;stop-color:#000000"
       d="m -108.67355,65.873257 c -6.04637,0 -10.91415,4.771952 -10.91415,10.69997 0,5.928017 4.86778,10.700638 10.91415,10.700638 0.007,0 0.0152,-6.7e-4 0.0113,-3.4e-4 1.50025,3.3e-4 2.71728,-1.192899 2.71728,-2.674904 0,-1.482002 -1.32472,-2.351288 -2.67257,-2.377661 -1.62291,-0.03419 -3.72918,-1.004621 -4.80403,-2.914443 h 4.15381 c 1.51406,0 2.73296,-1.218899 2.73296,-2.732957 0,-1.514059 -1.2189,-2.732958 -2.73296,-2.732958 h -4.1845 c 1.05864,-1.877438 3.17002,-2.659091 4.79869,-2.667235 1.52217,-0.01127 2.7086,-1.143529 2.7086,-2.625534 -1e-5,-1.482004 -1.21703,-2.674578 -2.71728,-2.674241 0.004,3.09e-4 -0.004,-3.35e-4 -0.0113,-3.35e-4 z" />
    <path
       id="rect835-1-3-5-7"
       style="fill:#cccccc;fill-opacity:1;stroke:#000000;stroke-width:0.00881683;stroke-linecap:round;stroke-linejoin:round;paint-order:markers fill stroke;stop-color:#000000"
       d="m -112.97127,120.52903 c -6.04637,0 -10.91415,4.77195 -10.91415,10.69997 0,5.92802 4.86778,10.70063 10.91415,10.70063 0.007,0 0.0152,-6.7e-4 0.0113,-3.4e-4 1.50025,3.3e-4 2.71728,-1.19289 2.71728,-2.67489 0,-1.482 -1.32472,-2.35129 -2.67257,-2.37766 -1.62291,-0.0342 -3.72918,-1.00462 -4.80403,-2.91445 h 4.15381 c 1.51406,0 2.73296,-1.2189 2.73296,-2.73296 0,-1.51406 -1.2189,-2.73296 -2.73296,-2.73296 h -4.1845 c 1.05864,-1.87743 3.17002,-2.65909 4.79869,-2.66723 1.52217,-0.0113 2.7086,-1.14353 2.7086,-2.62553 -1e-5,-1.48201 -1.21703,-2.67458 -2.71728,-2.67425 0.004,3.1e-4 -0.004,-3.3e-4 -0.0113,-3.3e-4 z" />
    <path
       id="rect835-1-2"
       style="fill:#cccccc;fill-opacity:1;stroke:#000000;stroke-width:0.0136572;stroke-linecap:round;stroke-linejoin:round;paint-order:markers fill stroke;stop-color:#000000"
       d="m -231.11605,44.594313 c 0.0118,0 0.0234,10e-4 0.0176,5.2e-4 2.32388,-5.2e-4 4.20905,1.84729 4.20905,4.1429 0,2.29562 -1.83829,4.04947 -4.19613,4.06693 -3.49178,0.0175 -8.41698,2.32783 -8.46615,8.26152 l -5.2e-4,0.0636 c 0,0.10193 0.005,0.20111 0.008,0.30127 0.41697,3.35728 2.81883,7.40462 8.19485,7.44916 l 0.0636,5.1e-4 c 3.5896,-1e-5 6.07526,-1.92087 7.46518,-4.22041 h -1.01234 c -2.40809,0 -4.34702,-1.88807 -4.34702,-4.23333 0,-2.34527 1.93893,-4.23334 4.34702,-4.23334 h 5.8136 c 0.20408,0 0.40351,0.0182 0.59996,0.0445 2.10812,0.20242 3.74753,2.00053 3.74706,4.18889 -5.2e-4,-0.006 5.1e-4,0.006 5.1e-4,0.0176 0,8.59035 -5.74797,15.82907 -13.86308,16.93835 -0.61672,0.34805 -1.80174,0.36049 -2.56382,0.36033 0.006,-5.2e-4 -0.006,5.2e-4 -0.0176,5.2e-4 -9.36579,0 -16.90595,-7.39224 -16.90595,-16.5747 0,-9.18246 7.54016,-16.5747 16.90595,-16.5747 z"
       sodipodi:nodetypes="ccscsccsccssssccsccsscc" />
    <path
       id="rect835-8"
       style="fill:#cd87de;fill-opacity:1;stroke:#000000;stroke-width:0.0136572;stroke-linecap:round;stroke-linejoin:round;paint-order:markers fill stroke;stop-color:#000000"
       d="m 120.36187,213.70195 c 0.0118,0 0.0234,-0.001 0.0176,-5.2e-4 2.32388,5.2e-4 4.20906,-1.84728 4.20906,-4.14289 0,-2.29562 -1.83778,-4.04896 -4.19562,-4.06642 -3.49177,-0.0175 -8.41749,-2.32784 -8.46666,-8.26151 l -5.1e-4,-0.0641 c 10e-6,-5.76089 4.94604,-8.68109 8.46717,-8.78447 h 33.54422 v -7.82898 c -19.22611,-0.17418 -38.4528,-0.13385 -57.679439,-0.13385 0.006,5.2e-4 -21.11537,0.0391 -21.11537,0.0391 -9.74713,-0.0475 -16.88569,7.487 -16.88569,16.66945 0,9.18246 7.54016,16.57418 16.90595,16.57418 0.0118,0 0.0234,-0.001 0.0176,-5.2e-4 2.32388,5.2e-4 4.20904,-1.84728 4.20904,-4.14289 0,-2.29562 -1.83777,-4.04895 -4.19561,-4.06641 -3.49177,-0.0175 -8.41749,-2.32783 -8.46666,-8.26151 l -5.2e-4,-0.0641 c 10e-6,-5.76088 4.94605,-8.68108 8.46718,-8.78447 h 8.02793 c -1.50164,2.47809 -2.36522,5.37495 -2.36522,8.47804 0,9.18245 7.54015,16.57416 16.90593,16.57416 0.0118,0 0.0234,-10e-4 0.0176,-5.2e-4 2.323879,5.2e-4 4.209049,-1.84728 4.209049,-4.1429 0,-2.29562 -1.83777,-4.04893 -4.195609,-4.0664 -3.49176,-0.0175 -8.41749,-2.32784 -8.46666,-8.2615 l -5.2e-4,-0.0641 c 1e-5,-4.83844 3.48872,-7.67181 6.69209,-8.51678 h 9.968389 c -1.60369,2.53588 -2.53059,5.53037 -2.53059,8.74571 0,9.18245 7.54016,16.57416 16.90593,16.57416 z"
       sodipodi:nodetypes="scscsccccccsscscscccsscscscccsss" />
    <circle
       id="path1387"
       style="fill:#bc5fd3;stroke:#000000;stroke-width:0.264583"
       cx="35.907742"
       cy="214.3125"
       r="0.049953096" />
    <text
       xml:space="preserve"
       style="font-size:10.5833px;line-height:1.25;font-family:'Gloria Hallelujah';-inkscape-font-specification:'Gloria Hallelujah, Normal';stroke-width:0.264583"
       x="26.080357"
       y="225.2738"
       id="text1391"><tspan
         sodipodi:role="line"
         id="tspan1389"
         x="26.080357"
         y="225.2738"
         style="stroke-width:0.264583" /></text>
    <text
       xml:space="preserve"
       style="font-size:10.5833px;line-height:1.25;font-family:'Gloria Hallelujah';-inkscape-font-specification:'Gloria Hallelujah, Normal';stroke-width:0.264583"
       x="-76.729164"
       y="281.59225"
       id="text1395"><tspan
         sodipodi:role="line"
         id="tspan1393"
         x="-76.729164"
         y="281.59225"
         style="stroke-width:0.264583" /></text>
    <path
       id="rect835-1-8"
       style="fill:#cccccc;fill-opacity:1;stroke:#000000;stroke-width:0.0136572;stroke-linecap:round;stroke-linejoin:round;paint-order:markers fill stroke;stop-color:#000000"
       d="m 46.40513,126.30021 c 0.0118,0 0.0234,10e-4 0.0176,5.2e-4 2.32388,-5.2e-4 4.20905,1.84726 4.20905,4.14287 0,2.29562 -1.83792,4.04939 -4.19577,4.06685 -3.49177,0.0175 -8.41734,2.32777 -8.46651,8.26145 l -5.3e-4,0.0638 c 2e-5,5.79106 4.99838,8.7128 8.52277,8.78706 2.08782,0.0409 4.14003,1.38748 4.14003,3.6831 -1e-5,2.29561 -1.88517,4.14388 -4.20905,4.14338 0.006,-5.2e-4 -0.006,5.1e-4 -0.0176,5.1e-4 -9.36579,0 -16.90595,-7.39257 -16.90595,-16.57503 0,-9.18246 7.54016,-16.57452 16.90595,-16.57452 z"
       sodipodi:nodetypes="scscsccscssss" />
    <text
       xml:space="preserve"
       style="font-size:7.91755px;line-height:1.25;font-family:Impact;-inkscape-font-specification:Impact;stroke-width:0.197939"
       x="52.266548"
       y="133.26338"
       id="text1419"><tspan
         sodipodi:role="line"
         id="tspan1417"
         x="52.266548"
         y="133.26338"
         style="stroke-width:0.197939">grablee.me</tspan></text>
  </g>
</svg>
