<?xml version="1.0" encoding="UTF-8" standalone="no"?>
<svg
   xmlns:dc="http://purl.org/dc/elements/1.1/"
   xmlns:cc="http://creativecommons.org/ns#"
   xmlns:rdf="http://www.w3.org/1999/02/22-rdf-syntax-ns#"
   xmlns:svg="http://www.w3.org/2000/svg"
   xmlns="http://www.w3.org/2000/svg"
   xmlns:sodipodi="http://sodipodi.sourceforge.net/DTD/sodipodi-0.dtd"
   xmlns:inkscape="http://www.inkscape.org/namespaces/inkscape"
   width="417.52377"
   height="117.22579"
   viewBox="0 0 110.46983 31.015994"
   version="1.1"
   id="svg8"
   inkscape:version="1.0.2 (e86c870879, 2021-01-15, custom)"
   sodipodi:docname="logograblee.svg">
  <defs
     id="defs2" />
  <sodipodi:namedview
     id="base"
     pagecolor="#ec9ef1"
     bordercolor="#666666"
     borderopacity="1.0"
     inkscape:pageopacity="0"
     inkscape:pageshadow="2"
     inkscape:zoom="1.4"
     inkscape:cx="161.4253"
     inkscape:cy="142.88465"
     inkscape:document-units="px"
     inkscape:current-layer="g957"
     inkscape:document-rotation="0"
     showgrid="false"
     inkscape:snap-center="true"
     inkscape:snap-object-midpoints="true"
     inkscape:snap-midpoints="true"
     showguides="false"
     inkscape:window-width="1566"
     inkscape:window-height="1033"
     inkscape:window-x="205"
     inkscape:window-y="0"
     inkscape:window-maximized="0"
     fit-margin-top="0"
     fit-margin-left="0"
     fit-margin-right="0"
     fit-margin-bottom="0"
     units="px" />
  <metadata
     id="metadata5">
    <rdf:RDF>
      <cc:Work
         rdf:about="">
        <dc:format>image/svg+xml</dc:format>
        <dc:type
           rdf:resource="http://purl.org/dc/dcmitype/StillImage" />
        <dc:title></dc:title>
      </cc:Work>
    </rdf:RDF>
  </metadata>
  <g
     inkscape:label="Layer 1"
     inkscape:groupmode="layer"
     id="layer1"
     transform="translate(-267.43817,-24.304676)">
    <path
       id="rect835"
       style="fill:#bc5fd3;fill-opacity:1;stroke:#000000;stroke-width:0.0136572;stroke-linecap:round;stroke-linejoin:round;paint-order:markers fill stroke;stop-color:#000000"
       d="m -81.512746,-64.351449 c -4.68984,9.6e-4 -9.379599,0.004 -14.069425,0.004 0.006,6e-4 -21.115509,0.0393 -21.115509,0.0393 -9.74713,-0.0475 -16.88579,7.4868 -16.88579,16.66926 0,9.18246 7.54016,16.57419 16.90595,16.57419 0.0118,0 0.0239,-10e-4 0.0181,-5.2e-4 2.32388,5.2e-4 4.20853,-1.84729 4.20853,-4.1429 0,-2.29562 -1.83777,-4.04892 -4.19561,-4.06642 -3.49177,-0.0175 -8.41698,-2.32783 -8.46615,-8.26151 l -5.2e-4,-0.0641 c 1e-5,-5.7609 4.94554,-8.68109 8.46667,-8.78447 h 8.02793 c -1.50164,2.47809 -2.36471,5.37494 -2.36471,8.47803 0,9.18245 7.53964,16.57418 16.905424,16.57418 0.01179,0 0.02389,-9.9e-4 0.01809,-5.1e-4 2.323878,5.1e-4 4.209045,-1.84728 4.209045,-4.1429 0,-2.29562 -1.83777,-4.04892 -4.195609,-4.06642 -3.491767,-0.0175 -8.4175,-2.32785 -8.46667,-8.26151 l -5.1e-4,-0.0641 c 1e-5,-4.83845 3.488721,-7.67183 6.692095,-8.51679 h 9.968389 c -1.60369,2.53587 -2.530599,5.53037 -2.530599,8.74571 0,9.18245 7.540169,16.57419 16.905939,16.57419 0.0114,-7e-5 0.0226,-9.8e-4 0.017,-5.2e-4 2.32389,5.2e-4 4.209046,-1.84729 4.209046,-4.1429 0,-2.29562 -1.837766,-4.04944 -4.195606,-4.06694 -3.49177,-0.0175 -8.4175,-2.32732 -8.46667,-8.26099 l -5.1e-4,-0.0646 c 1e-5,-5.7609 4.94605,-8.68109 8.46718,-8.78447 h 0.84336 v 3.94963 c 0,0.72904 0.0714,1.29216 0.21497,1.68982 0.1436,0.39213 0.4087,0.7099 0.7953,0.95291 0.39214,0.24301 0.88938,0.36432 1.491386,0.36432 0.34795,0 0.67944,-0.0659 0.99425,-0.19844 0.32034,-0.13255 0.62386,-0.32901 0.91106,-0.58859 v 0.82889 c 0,0.47498 -0.0412,0.78674 -0.12403,0.93586 -0.0828,0.14912 -0.25133,0.22376 -0.50539,0.22376 -0.35347,0 -0.5302,-0.24313 -0.5302,-0.72916 h -3.247346 c 0.0221,1.06042 0.35581,1.77008 1.00201,2.12907 0.64619,0.36452 1.502366,0.54674 2.568306,0.54674 0.86712,0 1.58501,-0.0994 2.15388,-0.29817 0.57439,-0.19331 1.0217,-0.47762 1.34204,-0.85318 0.32033,-0.37005 0.50581,-0.72075 0.55552,-1.05214 0.0552,-0.3369 0.0827,-1.07675 0.0827,-2.22001 v -5.68131 h 1.19269 v 8.20777 h 3.34708 v -4.34082 c 0,-1.06595 0.0335,-1.7454 0.0997,-2.03812 0.0663,-0.29824 0.24301,-0.5304 0.53021,-0.69609 0.2872,-0.16569 0.73725,-0.24856 1.3503,-0.24856 v -0.88418 h 0.62839 c -0.019,0.22806 -0.032,0.46877 -0.032,0.73535 v 0.73743 h 3.13986 v -1.15187 c 0,-0.13228 0.006,-0.21049 0.009,-0.32091 h 1.04439 c 0.004,0.10688 0.007,0.21931 0.007,0.34571 0,0.45841 -0.0384,0.76245 -0.11576,0.91158 -0.0773,0.14912 -0.66567,0.43891 -1.76475,0.86971 -1.02728,0.39766 -1.67105,0.74562 -1.93063,1.04386 -0.25958,0.29825 -0.38912,0.85863 -0.38912,1.68156 v 0.9033 c 0,1.11012 0.24313,1.83076 0.72915,2.16214 0.49155,0.32586 1.02997,0.48886 1.61541,0.48886 0.44736,0 0.83102,-0.0966 1.15135,-0.2899 0.32586,-0.19883 0.59095,-0.49464 0.7953,-0.88677 v 0.97772 h 3.25613 v -5.5175 c 0,-1.1574 -0.0263,-2.0348 -0.0734,-2.69027 h 1.22473 v 8.20777 h 3.13159 l 0.21549,-0.82838 c 0.28168,0.34243 0.59069,0.59928 0.9276,0.7705 0.34242,0.17121 0.71012,0.25683 1.10226,0.25683 0.54677,0 1.01879,-0.14379 1.41645,-0.43098 0.39765,-0.29272 0.64902,-0.6352 0.75395,-1.02733 0.11047,-0.39765 0.16537,-0.99921 0.16537,-1.80557 v -4.95422 c 0,-0.0713 -0.002,-0.10981 -0.003,-0.17674 h 1.10484 v 8.19589 h 3.4463 v -8.19589 h 1.15704 c -0.0367,0.30349 -0.0553,0.63561 -0.0553,0.99684 v 3.20601 c 0,0.8174 0.0582,1.44144 0.17415,1.87223 0.11598,0.42528 0.32291,0.81768 0.62115,1.17668 0.30377,0.35347 0.72637,0.63229 1.26763,0.83664 0.54125,0.20435 1.16529,0.30644 1.87223,0.30644 0.72904,0 1.33386,-0.10209 1.81436,-0.30644 0.48603,-0.20988 0.88615,-0.52215 1.20096,-0.93638 0.31481,-0.41422 0.51402,-0.80337 0.59686,-1.16789 0.0884,-0.36452 0.1323,-0.88646 0.1323,-1.56579 v -0.81184 h -3.17294 v 1.44953 c 0,0.54677 -0.0439,0.9167 -0.13229,1.11 -0.0828,0.18779 -0.25134,0.28216 -0.50539,0.28216 -0.20435,0 -0.34265,-0.0719 -0.41445,-0.21549 -0.0718,-0.1436 -0.10749,-0.46411 -0.10749,-0.96118 v -2.37764 h 4.33256 v -1.4583 c 0,-0.5406 -0.0322,-1.01857 -0.0961,-1.43558 h 1.14566 c -0.0367,0.30349 -0.0553,0.63561 -0.0553,0.99684 v 3.20601 c 0,0.8174 0.0582,1.44144 0.17415,1.87223 0.11598,0.42528 0.32291,0.81768 0.62115,1.17668 0.30377,0.35347 0.72637,0.63229 1.26762,0.83664 0.54126,0.20435 1.16529,0.30644 1.87224,0.30644 0.72904,0 1.33386,-0.10209 1.81436,-0.30644 0.48603,-0.20988 0.88615,-0.52215 1.20096,-0.93638 0.31481,-0.41422 0.51402,-0.80337 0.59686,-1.16789 0.0884,-0.36452 0.1323,-0.88646 0.1323,-1.56579 v -0.81184 h -3.17294 v 1.44953 c 0,0.54677 -0.0439,0.9167 -0.13229,1.11 -0.0829,0.18779 -0.25134,0.28216 -0.5054,0.28216 -0.20435,0 -0.34264,-0.0719 -0.41444,-0.21549 -0.0718,-0.1436 -0.10749,-0.46411 -0.10749,-0.96118 v -2.37764 h 4.33256 v -1.4583 c 0,-0.5406 -0.0322,-1.01857 -0.0961,-1.43558 h 4.32118 v 8.19589 h 3.2478603 v -7.62176 c 0,-0.29395 0.006,-0.39391 0.009,-0.57413 h 1.05627 c 0.0122,0.3156 0.0196,0.70721 0.0196,1.21233 v 6.98356 h 3.24735 v -7.16598 c 0,-0.41827 0.008,-0.75355 0.0207,-1.02991 h 1.0604 c 0.0132,0.27584 0.0207,0.61147 0.0207,1.02991 v 7.16598 h 3.24786 v -7.81245 c 0,-0.13744 -0.004,-0.2577 -0.006,-0.38344 h 1.11363005 c -0.0367,0.30349 -0.0553,0.63561 -0.0553,0.99684 v 3.20601 c 0,0.8174 0.0576,1.44144 0.17364,1.87223 0.11598,0.42528 0.32342,0.81768 0.62166,1.17668 0.30377,0.35347 0.72584995,0.63229 1.26710995,0.83664 0.54125,0.20435 1.16581,0.30644 1.87275,0.30644 0.72904,0 1.33386,-0.10209 1.81436,-0.30644 0.48603,-0.20988 0.88615,-0.52215 1.20096,-0.93638 0.31481,-0.41422 0.5135,-0.80337 0.59635,-1.16789 0.0884,-0.36452 0.13281,-0.88646 0.13281,-1.56579 v -0.81184 h -3.17293 v 1.44953 c 0,0.54677 -0.0444,0.9167 -0.13281,1.11 -0.0828,0.18779 -0.25134,0.28216 -0.5054,0.28216 -0.20435,0 -0.34213,-0.0719 -0.41393,-0.21549 -0.0718,-0.1436 -0.108,-0.46411 -0.108,-0.96118 v -2.37764 h 4.33307 v -1.4583 c 0,-0.58655 -0.039,-1.09736 -0.11421,-1.53841 v -7.74837 H -39.30499 c -14.06911,-0.11992 -28.13875,-0.12949 -42.208276,-0.1266 z m 14.258556,7.96592 h 0.99736 c 5.5e-4,0.0445 0.002,0.0825 0.002,0.13022 v 3.40496 c 0,0.6241 -0.0329,1.02474 -0.0992,1.20148 -0.0663,0.17674 -0.21006,0.2651 -0.43098,0.2651 -0.19331,0 -0.32011,-0.0719 -0.38086,-0.21549 -0.0607,-0.14912 -0.0915,-0.46912 -0.0915,-0.96066 v -3.69539 c 0,-0.0474 0.002,-0.0861 0.003,-0.13022 z m 23.52157,0 h 1.00872 c 0.003,0.10464 0.006,0.21411 0.006,0.33744 v 4.63125 c 0,0.65171 -0.0335,1.06333 -0.0997,1.23455 -0.0608,0.17121 -0.19579,0.25683 -0.40566,0.25683 -0.20435,0 -0.34265,-0.0829 -0.41445,-0.24857 -0.0663,-0.16569 -0.0992,-0.54436 -0.0992,-1.13533 v -4.73873 c 0,-0.12432 0.002,-0.2322 0.005,-0.33744 z m 13.36662,0.0119 h 0.96428 c 0.002,0.095 0.005,0.19069 0.005,0.30076 v 0.80357 h -0.9772 v -0.80357 c 0,-0.1244 0.006,-0.19579 0.008,-0.30076 z m 8.67389,0 h 0.96428 c 0.002,0.095 0.005,0.19069 0.005,0.30076 v 0.80357 h -0.97721 v -0.80357 c 0,-0.1244 0.006,-0.19579 0.008,-0.30076 z m 24.8863403,0 h 0.9648 c 0.002,0.095 0.005,0.19069 0.005,0.30076 v 0.80357 h -0.97772 v -0.80357 c 0,-0.1244 0.006,-0.19579 0.008,-0.30076 z m -54.7770203,2.9683 v 2.26187 c 0,0.55231 -0.0329,0.89478 -0.0992,1.02733 -0.0607,0.12703 -0.1963,0.19069 -0.40618,0.19069 -0.22092,0 -0.37019,-0.0829 -0.44751,-0.24857 -0.0718,-0.16569 -0.10749,-0.53338 -0.10749,-1.10225 0,-0.49708 0.0412,-0.87798 0.12402,-1.14309 0.0884,-0.2651 0.40065,-0.59385 0.93638,-0.98598 z m 35.01027,2.4939 v 2.73369 h 2.52697 v -2.73369 z" />
    <path
       id="rect835-1"
       style="fill:#ff7f2a;fill-opacity:1;stroke:#000000;stroke-width:0.0136572;stroke-linecap:round;stroke-linejoin:round;paint-order:markers fill stroke;stop-color:#000000"
       d="m 0.5847973,10.364357 c 0.0118,0 0.0234,10e-4 0.0176,5.19e-4 2.32388,-5.19e-4 4.20905,1.847256 4.20905,4.142871 0,2.295615 -1.8512,4.306335 -4.20904998,4.323796 -3.49176992,0.01746 -8.40405992,2.070825 -8.45322992,8.004501 l -5.3e-4,0.06384 c 2e-5,5.791061 4.92936,8.072609 8.45374991,8.146869 2.08781999,0.04085 4.20904999,2.027673 4.20904999,4.323288 -10e-6,2.295615 -1.88517,4.143885 -4.20905,4.143379 0.006,-5.19e-4 -0.006,5.19e-4 -0.0176,5.19e-4 -9.3657899,0 -16.9059503,-7.39257 -16.9059503,-16.57503 0,-9.182461 7.5401604,-16.574526 16.9059503,-16.574526 z"
       sodipodi:nodetypes="scscsccscssss" />
    <path
       id="rect835-1-2"
       style="fill:#cccccc;fill-opacity:1;stroke:#000000;stroke-width:0.0136572;stroke-linecap:round;stroke-linejoin:round;paint-order:markers fill stroke;stop-color:#000000"
       d="m -231.11605,44.594313 c 0.0118,0 0.0234,10e-4 0.0176,5.2e-4 2.32388,-5.2e-4 4.20905,1.84729 4.20905,4.1429 0,2.29562 -1.83829,4.04947 -4.19613,4.06693 -3.49178,0.0175 -8.41698,2.32783 -8.46615,8.26152 l -5.2e-4,0.0636 c 0,0.10193 0.005,0.20111 0.008,0.30127 0.41697,3.35728 2.81883,7.40462 8.19485,7.44916 l 0.0636,5.1e-4 c 3.5896,-1e-5 6.07526,-1.92087 7.46518,-4.22041 h -1.01234 c -2.40809,0 -4.34702,-1.88807 -4.34702,-4.23333 0,-2.34527 1.93893,-4.23334 4.34702,-4.23334 h 5.8136 c 0.20408,0 0.40351,0.0182 0.59996,0.0445 2.10812,0.20242 3.74753,2.00053 3.74706,4.18889 -5.2e-4,-0.006 5.1e-4,0.006 5.1e-4,0.0176 0,8.59035 -5.74797,15.82907 -13.86308,16.93835 -0.61672,0.34805 -1.80174,0.36049 -2.56382,0.36033 0.006,-5.2e-4 -0.006,5.2e-4 -0.0176,5.2e-4 -9.36579,0 -16.90595,-7.39224 -16.90595,-16.5747 0,-9.18246 7.54016,-16.5747 16.90595,-16.5747 z"
       sodipodi:nodetypes="ccscsccsccssssccsccsscc" />
    <text
       xml:space="preserve"
       style="font-size:10.5833px;line-height:1.25;font-family:'Gloria Hallelujah';-inkscape-font-specification:'Gloria Hallelujah, Normal';stroke-width:0.264583"
       x="26.080357"
       y="225.2738"
       id="text1391"><tspan
         sodipodi:role="line"
         id="tspan1389"
         x="26.080357"
         y="225.2738"
         style="stroke-width:0.264583" /></text>
    <text
       xml:space="preserve"
       style="font-size:10.5833px;line-height:1.25;font-family:'Gloria Hallelujah';-inkscape-font-specification:'Gloria Hallelujah, Normal';stroke-width:0.264583"
       x="-76.729164"
       y="281.59225"
       id="text1395"><tspan
         sodipodi:role="line"
         id="tspan1393"
         x="-76.729164"
         y="281.59225"
         style="stroke-width:0.264583" /></text>
    <rect
       style="fill:#ff7f2a;stroke-width:0.186303;stroke-linecap:round;stroke-linejoin:round;paint-order:markers fill stroke;stop-color:#000000"
       id="rect949"
       width="19.049999"
       height="8.4666662"
       x="0.58478731"
       y="10.364383" />
    <path
       id="rect835-1-0"
       style="fill:#ff7f2a;fill-opacity:1;stroke:#000000;stroke-width:0.0516178;stroke-linecap:round;stroke-linejoin:round;paint-order:markers fill stroke;stop-color:#000000"
       d="m 87.599609,-598.02539 c -35.398261,0 -64.253627,19.0106 -63.896484,62.64453 h 0.02734 c 0.144479,8.7373 7.213346,15.73047 15.986328,15.73047 8.823112,0 15.928726,-7.07178 15.994141,-15.87891 h 0.0039 l 0.002,-0.12109 0.002,-0.12109 c 0.185839,-22.4265 18.683542,-30.18793 31.880783,-30.25392 8.911559,-0.066 15.976633,-7.66349 15.976633,-16.33983 0,-8.67634 -7.125029,-15.66017 -15.908197,-15.65821 0.02192,0.002 -0.02376,-0.002 -0.06836,-0.002 z"
       transform="matrix(0.26458333,0,0,0.26458333,42.457062,172.71584)"
       sodipodi:nodetypes="sccscccccscss" />
    <rect
       style="fill:#ff7f2a;stroke-width:0.186303;stroke-linecap:round;stroke-linejoin:round;paint-order:markers fill stroke;stop-color:#000000"
       id="rect949-3"
       width="19.049999"
       height="8.4666662"
       x="65.63446"
       y="14.488291" />
    <path
       id="rect835-1-3"
       style="fill:#ff7f2a;fill-opacity:1;stroke:#000000;stroke-width:0.0516178;stroke-linecap:round;stroke-linejoin:round;paint-order:markers fill stroke;stop-color:#000000"
       d="m 274.47852,-619.23828 c -35.39827,0 -63.53907,28.38448 -63.53907,63.08984 0,17.35268 7.12446,33.01462 14.42104,40.48307 7.29658,7.46846 11.83078,9.85873 16.95201,9.85873 8.864,0 16,-7.136 16,-16 0,-4.47795 -1.82441,-8.51146 -6.76999,-13.00774 -4.94558,-4.49627 -8.94872,-11.78655 -8.94876,-21.92781 l 0.002,-0.24219 c 0.18584,-22.42649 18.68557,-30.18791 31.88281,-30.2539 8.91156,-0.066 15.97461,-7.6635 15.97461,-16.33984 0,-8.67635 -7.12503,-15.66017 -15.9082,-15.65821 0.0219,0.002 -0.0218,-0.002 -0.0664,-0.002 z"
       sodipodi:nodetypes="sscssccscscss"
       transform="matrix(0.26458333,0,0,0.26458333,42.457062,172.71584)" />
    <rect
       style="fill:#ff7f2a;stroke-width:0.186303;stroke-linecap:round;stroke-linejoin:round;paint-order:markers fill stroke;stop-color:#000000"
       id="rect949-3-5"
       width="19.049999"
       height="8.4666662"
       x="115.07951"
       y="8.8757133" />
    <path
       id="rect835-1-3-2"
       style="fill:#bc5fd3;fill-opacity:1;stroke:none;stroke-width:0.0136572;stroke-linecap:round;stroke-linejoin:round;paint-order:markers fill stroke;stop-color:#000000"
       d="m 84.438556,324.99734 c -9.3658,0 -16.81138,7.51006 -16.81138,16.69252 0,4.59123 1.88524,8.73547 3.81579,10.71149 1.93056,1.97603 3.13001,2.60811 4.485,2.60811 2.34527,0 4.23333,-1.88807 4.23333,-4.23333 0,-1.18479 -0.48258,-2.25201 -1.7911,-3.44165 -1.30852,-1.18964 -2.36781,-3.11851 -2.36782,-5.80171 l 5.2e-4,-0.0641 c 0.0492,-5.93368 4.94389,-7.98722 8.43566,-8.00468 h 19.050004 v -8.46667 z" />
    <path
       id="rect835-1-3-2-9"
       style="fill:#bc5fd3;fill-opacity:1;stroke:none;stroke-width:0.0136572;stroke-linecap:round;stroke-linejoin:round;paint-order:markers fill stroke;stop-color:#000000"
       d="m 103.48856,324.99732 c -9.365804,0 -16.811384,7.51006 -16.811384,16.69252 0,4.59123 1.88524,8.73547 3.81579,10.71148 1.93056,1.97603 3.13001,2.60811 4.485,2.60811 2.34527,0 4.23333,-1.88805 4.23333,-4.23331 0,-1.1848 -0.48258,-2.25201 -1.7911,-3.44165 -1.30852,-1.18964 -2.36781,-3.11851 -2.36782,-5.80171 l 5.2e-4,-0.0641 c 0.0492,-5.93368 4.94389,-7.98722 8.435664,-8.00468 h 19.05 v -8.46668 z" />
    <path
       id="rect835-1-3-9"
       style="fill:#bc5fd3;fill-opacity:1;stroke:none;stroke-width:0.0136572;stroke-linecap:round;stroke-linejoin:round;paint-order:markers fill stroke;stop-color:#000000"
       d="m 122.53858,324.99731 c -9.3658,0 -16.81138,7.51006 -16.81138,16.69252 0,4.59123 1.88501,8.73512 3.81556,10.71115 1.93056,1.97603 3.13023,2.60845 4.48522,2.60845 2.34527,0 4.23334,-1.88806 4.23334,-4.23333 0,-1.18479 -0.48271,-2.25199 -1.79123,-3.44163 -1.30852,-1.18964 -2.36768,-3.11852 -2.36769,-5.80173 l 5.3e-4,-0.0641 c 0.0492,-5.93368 4.94389,-7.98722 8.43566,-8.00468 2.35785,-0.0175 4.22661,-2.02763 4.22661,-4.32325 0,-2.29562 -1.88516,-4.14342 -4.20904,-4.1429 0.006,5.3e-4 -0.006,-5.3e-4 -0.0176,-5.3e-4 z"
       sodipodi:nodetypes="sscssccscscss" />
    <rect
       style="fill:#bc5fd3;fill-opacity:1;stroke-width:0.186303;stroke-linecap:round;stroke-linejoin:round;paint-order:markers fill stroke;stop-color:#000000"
       id="rect949-3-5-5"
       width="19.049999"
       height="8.4666662"
       x="-198.1967"
       y="276.00537"
       transform="rotate(-51.743487)" />
    <path
       id="rect835-1-3-2-3"
       style="fill:#bc5fd3;fill-opacity:1;stroke:none;stroke-width:0.006655;stroke-linecap:round;stroke-linejoin:round;paint-order:markers fill stroke;stop-color:#000000"
       d="m 320.27298,77.177185 -5.1584,6.542115 h -5.25433 c -4.56385,0 -8.19199,3.65957 -8.19199,8.13407 0,2.23725 0.91865,4.25669 1.85939,5.21959 0.94074,0.96289 1.52521,1.2709 2.18548,1.2709 1.14283,0 2.06286,-0.92004 2.06286,-2.06285 0,-0.57734 -0.23516,-1.09738 -0.87279,-1.67708 -0.63762,-0.5797 -1.1538,-1.51962 -1.15381,-2.82711 l 2.6e-4,-0.0312 c 0.024,-2.89141 2.4091,-3.89208 4.1106,-3.90058 h 2.15149 c -0.67496,1.18502 -1.06063,2.55305 -1.06063,4.00836 0,2.23725 0.91865,4.25669 1.85939,5.21958 0.94074,0.9629 1.52521,1.2709 2.18548,1.2709 1.14283,0 2.06286,-0.92003 2.06286,-2.06285 0,-0.57734 -0.23516,-1.09738 -0.87279,-1.67708 -0.63762,-0.57969 -1.1538,-1.51961 -1.15381,-2.82711 l 2.6e-4,-0.0312 c 0.024,-2.89141 2.4091,-3.89208 4.1106,-3.90059 h 2.15148 c -0.67496,1.18502 -1.06063,2.55305 -1.06063,4.00836 0,2.23726 0.9184,4.25644 1.85913,5.21934 0.94074,0.96289 1.52547,1.27115 2.18574,1.27115 1.14283,0 2.06286,-0.92003 2.06286,-2.06285 0,-0.57734 -0.23516,-1.09738 -0.87279,-1.67708 -0.63762,-0.5797 -1.1538,-1.51961 -1.15381,-2.82711 l 2.6e-4,-0.0312 c 0.024,-2.89141 2.4091,-3.89208 4.1106,-3.90058 1.14895,-0.009 2.05958,-0.98804 2.05958,-2.10667 0,-1.11863 -0.91862,-2.01904 -2.05102,-2.01879 0.003,2.5e-4 -0.003,-2.6e-4 -0.009,-2.6e-4 h -8.05752 l 3.14439,-3.98747 z" />
    <g
       id="g963"
       transform="matrix(1.0877221,0,0,1.0028336,77.239851,-41.407557)">
      <g
         id="g1001">
        <path
           id="rect835-1-3-2-3-1"
           style="fill:#4b0050;fill-opacity:1;stroke:none;stroke-width:0.0136572;stroke-linecap:round;stroke-linejoin:round;paint-order:markers fill stroke;stop-color:#000000"
           d="m 230.13874,311.89327 -10.58592,13.42553 h -10.78281 c -9.36579,0 -16.81137,7.51006 -16.81137,16.69252 0,4.59123 1.88523,8.73548 3.81579,10.7115 1.93056,1.97603 3.13,2.6081 4.48499,2.6081 2.34527,0 4.23334,-1.88807 4.23334,-4.23333 0,-1.18479 -0.48259,-2.25201 -1.79111,-3.44165 -1.30852,-1.18964 -2.3678,-3.11851 -2.36781,-5.80171 l 5.3e-4,-0.0641 c 0.0492,-5.93368 4.94389,-7.98722 8.43566,-8.00468 h 4.41523 c -1.38515,2.43188 -2.17661,5.2393 -2.17661,8.22585 0,4.59123 1.88524,8.73548 3.81579,10.7115 1.93056,1.97603 3.13,2.6081 4.48499,2.6081 2.34527,0 4.23334,-1.88807 4.23334,-4.23333 0,-1.1848 -0.48259,-2.25201 -1.79111,-3.44165 -1.30852,-1.18964 -2.3678,-3.11851 -2.36781,-5.80171 l 5.3e-4,-0.0641 c 0.0492,-5.93368 4.94388,-7.98722 8.43566,-8.00468 h 4.41521 c -1.38515,2.43188 -2.17661,5.2393 -2.17661,8.22585 0,4.59123 1.88472,8.73495 3.81527,10.71098 1.93056,1.97603 3.13052,2.60862 4.48551,2.60862 2.34527,0 4.23334,-1.88806 4.23334,-4.23333 0,-1.18479 -0.48259,-2.25201 -1.79111,-3.44165 -1.30852,-1.18964 -2.3678,-3.1185 -2.36781,-5.80171 l 5.3e-4,-0.0641 c 0.0492,-5.93368 4.94389,-7.98722 8.43566,-8.00468 2.35785,-0.0175 4.22661,-2.02763 4.22661,-4.32325 0,-2.29562 -1.88516,-4.14342 -4.20904,-4.1429 0.006,5.3e-4 -0.006,-5.3e-4 -0.0176,-5.3e-4 h -16.53544 l 6.45284,-8.18296 z" />
        <text
           xml:space="preserve"
           style="font-size:10.3188px;line-height:1.25;font-family:Impact;-inkscape-font-specification:Impact;fill:#f2cb05;fill-opacity:1;stroke-width:0.264583"
           x="-104.41235"
           y="382.24594"
           id="text884"
           transform="rotate(-51.672245)"><tspan
             sodipodi:role="line"
             id="tspan882"
             x="-104.41235"
             y="382.24594"
             style="font-size:10.3188px;fill:#f2cb05;fill-opacity:1;stroke-width:0.264583">GRABLEE.ME</tspan></text>
      </g>
      <g
         id="g996">
        <path
           id="rect835-1-3-2-3-1-2"
           style="fill:#4b0050;fill-opacity:1;stroke:none;stroke-width:0.0136572;stroke-linecap:round;stroke-linejoin:round;paint-order:markers fill stroke;stop-color:#000000"
           d="m 129.32035,200.41429 -2.19348,2.7744 6.39945,5.05926 2.2809,-2.88571 -1.28084,-1.01207 -0.96538,1.22128 -1.40722,-1.11254 0.82191,-1.03936 -1.21719,-0.96259 -0.82189,1.03937 -1.21338,-0.95899 0.87796,-1.11048 z m -2.7213,3.44275 -1.71556,2.16994 2.68806,2.74141 -1.80961,-1.05791 c -0.57799,-0.34131 -1.08414,-0.63254 -1.51886,-0.87344 l -1.70319,2.15449 6.39944,5.05873 1.14971,-1.45469 -4.22115,-3.33711 4.70526,2.72441 0.81573,-1.03164 -3.86057,-3.99618 4.31998,3.41542 1.14973,-1.45469 z m -5.70582,7.21735 -2.19349,2.7744 6.39945,5.05925 2.28089,-2.8857 -1.28083,-1.01207 -0.96538,1.22128 -1.40722,-1.11254 0.82192,-1.03937 -1.21767,-0.96259 -0.82142,1.03937 -1.21338,-0.95898 0.87796,-1.111 z m 6.36334,2.42296 -0.95304,1.2053 1.30461,1.03112 0.95302,-1.20531 z m -9.02242,0.94043 -2.19347,2.77491 6.39943,5.05874 2.28091,-2.88519 -1.28084,-1.01257 -0.96537,1.22127 -1.40722,-1.11254 0.8219,-1.03937 -1.21765,-0.96207 -0.82142,1.03937 -1.21339,-0.95951 0.87796,-1.11047 z m -3.31184,4.18994 -1.31552,1.6639 6.39898,5.05875 2.11557,-2.67597 -1.28085,-1.01206 -0.80005,1.01155 z m -1.73597,3.11758 c -0.27018,0.0208 -0.5161,0.10872 -0.73828,0.26383 -0.29416,0.20421 -0.64872,0.5686 -1.06326,1.09297 l -1.31218,1.6598 6.39896,5.05874 1.52171,-1.92466 c 0.5291,-0.6693 0.84106,-1.14215 0.93545,-1.41864 0.0944,-0.27648 0.076,-0.54593 -0.0551,-0.808 -0.12901,-0.26469 -0.4097,-0.56787 -0.84184,-0.90951 l -0.59245,-0.46841 c -0.41633,-0.32912 -0.77888,-0.50431 -1.08747,-0.52561 -0.31123,-0.0234 -0.66265,0.12256 -1.05374,0.43853 0.19383,-0.4077 0.26304,-0.72742 0.20713,-0.96001 -0.0537,-0.23523 -0.26766,-0.50086 -0.64185,-0.79666 -0.55336,-0.43746 -1.01973,-0.67101 -1.39865,-0.70083 -0.0954,-0.008 -0.18834,-0.008 -0.27841,-0.002 z m -0.27698,1.86335 c 0.045,-0.004 0.0952,10e-4 0.15061,0.0149 0.10821,0.0256 0.26247,0.11737 0.46273,0.27569 0.37945,0.29997 0.59226,0.50487 0.63852,0.61423 0.0436,0.10728 8.9e-4,0.24217 -0.12826,0.40555 -0.0313,0.0395 -0.0732,0.0963 -0.12685,0.16954 l -1.42338,-1.12492 c 0.13805,-0.16918 0.24096,-0.27456 0.30786,-0.31587 0.0345,-0.022 0.0738,-0.0351 0.11877,-0.0392 z m 2.45384,1.88653 c 0.10379,-0.0122 0.29274,0.0905 0.56678,0.30712 l 0.59672,0.4715 c 0.25823,0.20415 0.39429,0.36539 0.40809,0.48335 0.0159,0.11532 -0.0648,0.2936 -0.2423,0.53437 l -1.79061,-1.41553 c 0.20372,-0.24145 0.35752,-0.36867 0.46132,-0.38081 z m -6.2688,0.50396 -1.90273,2.40699 5.73052,5.90487 1.36255,-1.72318 -1.07227,-1.00845 0.47177,-0.59672 1.21575,0.82654 1.34687,-1.70359 z m 0.53449,2.26528 c 1.1312,0.75725 2.092,1.38047 2.88331,1.86901 l -0.44992,0.56889 c -0.53319,-0.49003 -1.34405,-1.30271 -2.43339,-2.4379 z m -2.96742,1.95816 c -0.38781,-0.024 -0.72244,0.0793 -1.00386,0.31072 -0.27933,0.22876 -0.72943,0.73593 -1.3502,1.52118 l -0.93117,1.17799 6.39944,5.05874 1.31552,-1.66392 -2.88521,-2.28125 c 0.18123,-0.22926 0.33322,-0.33806 0.45657,-0.32619 0.12543,0.009 0.35961,0.14969 0.70218,0.42048 l 2.12648,1.68093 1.22147,-1.54539 -1.68753,-1.33413 c -0.51647,-0.40829 -0.84292,-0.6428 -0.97915,-0.70339 -0.13677,-0.0653 -0.31834,-0.0957 -0.54493,-0.0907 -0.22659,0.005 -0.51118,0.13972 -0.85326,0.40451 0.25322,-0.39071 0.34322,-0.71518 0.26985,-0.97444 -0.0734,-0.25925 -0.35904,-0.58588 -0.85706,-0.97959 -0.54546,-0.4312 -1.01188,-0.6563 -1.39914,-0.67556 z m -0.36867,1.89065 c 0.10643,0.0167 0.23599,0.0848 0.38815,0.20509 l 0.35157,0.27826 c 0.28196,0.22289 0.41914,0.39362 0.41142,0.5117 -0.008,0.11335 -0.0863,0.26329 -0.23421,0.45037 l -1.42289,-1.1249 c 0.15206,-0.19236 0.28766,-0.29886 0.40715,-0.32001 0.0304,-0.007 0.0633,-0.007 0.0988,-5.1e-4 z m -3.07905,2.53014 c -0.24468,-0.009 -0.50891,0.0372 -0.79291,0.13913 -0.45441,0.16316 -0.87457,0.4885 -1.25994,0.97599 -0.12207,0.15442 -0.2237,0.30869 -0.30929,0.46326 l -10.423901,13.22063 h -10.78263 c -9.36577,0 -16.81147,7.50979 -16.81147,16.69226 0,4.59123 1.88536,8.7356 3.81591,10.71162 1.93056,1.97602 3.12985,2.60796 4.48485,2.60796 2.34526,0 4.23351,-1.88796 4.23351,-4.23322 0,-1.1848 -0.48258,-2.25208 -1.79108,-3.44172 -1.30853,-1.18965 -2.36783,-3.11862 -2.36785,-5.80181 l 4.7e-4,-0.0639 c 0.0492,-5.93367 4.9439,-7.98726 8.43566,-8.00472 h 4.41501 c -1.38516,2.43188 -2.17638,5.23925 -2.17638,8.2258 0,4.59123 1.88536,8.73561 3.81592,10.71162 1.93056,1.97602 3.12985,2.60796 4.48483,2.60796 2.34527,0 4.23304,-1.88796 4.23304,-4.23322 0,-1.18481 -0.48257,-2.25208 -1.7911,-3.44172 -1.30851,-1.18964 -2.36734,-3.11862 -2.36735,-5.80181 l 4.8e-4,-0.0639 c 0.0492,-5.93368 4.94389,-7.98727 8.435665,-8.00473 h 4.414996 c -1.38514,2.43188 -2.17639,5.23925 -2.17639,8.2258 0,4.59123 1.88442,8.73508 3.81497,10.71111 1.93056,1.97602 3.13079,2.60847 4.48579,2.60847 2.34526,0 4.23304,-1.88795 4.23304,-4.23322 0,-1.18479 -0.48257,-2.25208 -1.79108,-3.44172 -1.30853,-1.18964 -2.36784,-3.1186 -2.36785,-5.80181 l 4.7e-4,-0.0639 c 0.0492,-5.93368 4.94391,-7.98727 8.43567,-8.00473 2.35786,-0.0175 4.22688,-2.0278 4.22688,-4.3234 0,-2.29562 -1.88542,-4.14357 -4.20929,-4.14305 0.006,5.3e-4 -0.006,-5.2e-4 -0.0176,-5.2e-4 h -16.53546 l 6.45312,-8.18251 -0.0109,-0.009 c 0.17071,-0.22457 0.27642,-0.45488 0.31261,-0.69205 0.0373,-0.25307 0.002,-0.51425 -0.10642,-0.78378 l 0.58056,0.20818 0.82807,-1.04761 -3.43489,-2.71514 -1.54023,1.94837 0.97204,0.76883 0.26557,-0.33598 0.75918,0.59982 c 0.29777,0.23539 0.48043,0.41606 0.54778,0.5421 0.0694,0.1234 0.0559,0.24568 -0.0399,0.36689 -0.0875,0.11067 -0.19052,0.14935 -0.30928,0.11543 -0.12138,-0.036 -0.32563,-0.16768 -0.61286,-0.39473 l -3.07097,-2.42811 c -0.32675,-0.2583 -0.51546,-0.43704 -0.56536,-0.53644 -0.0499,-0.0994 -0.0342,-0.20023 0.047,-0.303 0.0937,-0.11856 0.19966,-0.15723 0.3169,-0.11593 0.11721,0.0413 0.3587,0.20669 0.72497,0.49623 l 0.58103,0.45914 1.31554,-1.66391 -0.27652,-0.21849 c -0.52437,-0.41454 -0.96249,-0.68164 -1.31362,-0.80078 -0.13265,-0.0454 -0.27221,-0.0708 -0.41903,-0.0763 z" />
        <path
           id="rect835-1-3-2-3-1-2-8"
           style="fill:#f2cb05;fill-opacity:1;stroke:none;stroke-width:0.0136572;stroke-linecap:round;stroke-linejoin:round;paint-order:markers fill stroke;stop-color:#000000"
           d="m 56.346749,200.41429 -2.19349,2.7744 6.39945,5.05926 2.2809,-2.88571 -1.28084,-1.01206 -0.96538,1.22127 -1.40722,-1.11254 0.82191,-1.03936 -1.21718,-0.96259 -0.8219,1.03937 -1.21338,-0.95899 0.87797,-1.11048 z m -2.72131,3.44275 -1.71555,2.16994 2.68806,2.74142 -1.80962,-1.05792 c -0.57798,-0.3413 -1.08414,-0.63254 -1.51886,-0.87344 l -1.70319,2.15449 6.39945,5.05874 1.14971,-1.4547 -4.22116,-3.33711 4.70527,2.72441 0.81573,-1.03164 -3.86057,-3.99618 4.31998,3.41543 1.14972,-1.4547 z m -5.70581,7.21735 -2.19349,2.7744 6.39944,5.05925 2.2809,-2.8857 -1.28083,-1.01206 -0.96538,1.22127 -1.40722,-1.11254 0.82191,-1.03937 -1.21766,-0.96259 -0.82142,1.03937 -1.21338,-0.95898 0.87796,-1.111 z m 6.36333,2.42296 -0.95303,1.2053 1.3046,1.03112 0.95302,-1.2053 z m -9.02241,0.94043 -2.19348,2.77491 6.39944,5.05874 2.2809,-2.88519 -1.28083,-1.01257 -0.96538,1.22127 -1.40722,-1.11254 0.82191,-1.03937 -1.21766,-0.96207 -0.82142,1.03937 -1.21338,-0.9595 0.87796,-1.11048 z m -3.31184,4.18994 -1.31552,1.66391 6.39897,5.05874 2.11557,-2.67597 -1.28084,-1.01206 -0.80005,1.01155 z m -1.73597,3.11759 c -0.27018,0.0208 -0.5161,0.10871 -0.73829,0.26383 -0.29416,0.2042 -0.64871,0.56859 -1.06325,1.09296 l -1.31219,1.6598 6.39897,5.05874 1.52171,-1.92466 c 0.5291,-0.6693 0.84105,-1.14215 0.93544,-1.41863 0.0944,-0.27649 0.076,-0.54594 -0.0551,-0.808 -0.12901,-0.2647 -0.40971,-0.56788 -0.84185,-0.90951 l -0.59244,-0.46842 c -0.41634,-0.32912 -0.77889,-0.50431 -1.08748,-0.52561 -0.31122,-0.0234 -0.66265,0.12256 -1.05374,0.43853 0.19383,-0.40769 0.26304,-0.72742 0.20714,-0.96001 -0.0538,-0.23523 -0.26767,-0.50086 -0.64185,-0.79666 -0.55336,-0.43746 -1.01973,-0.67101 -1.39866,-0.70082 -0.0954,-0.008 -0.18834,-0.008 -0.2784,-0.002 z m -0.27698,1.86334 c 0.045,-0.004 0.0952,10e-4 0.15061,0.0149 0.10821,0.0256 0.26247,0.11737 0.46273,0.27569 0.37945,0.29997 0.59225,0.50487 0.63852,0.61424 0.0436,0.10729 8.8e-4,0.24217 -0.12827,0.40555 -0.0312,0.0395 -0.0732,0.0963 -0.12685,0.16953 l -1.42337,-1.12491 c 0.13804,-0.16919 0.24095,-0.27457 0.30786,-0.31588 0.0345,-0.022 0.0738,-0.0351 0.11877,-0.0392 z m 2.45384,1.88653 c 0.10379,-0.0121 0.29273,0.0905 0.56677,0.30712 l 0.59672,0.4715 c 0.25823,0.20415 0.3943,0.3654 0.4081,0.48335 0.0159,0.11532 -0.0648,0.29361 -0.2423,0.53437 l -1.79061,-1.41553 c 0.20372,-0.24145 0.35752,-0.36867 0.46132,-0.38081 z m -6.2688,0.50396 -1.90273,2.40699 5.73052,5.90487 1.36255,-1.72318 -1.07227,-1.00845 0.47176,-0.59672 1.21575,0.82655 1.34688,-1.7036 z m 0.53448,2.26528 c 1.13121,0.75725 2.09201,1.38047 2.88331,1.86901 l -0.44991,0.56889 c -0.5332,-0.49003 -1.34406,-1.3027 -2.4334,-2.4379 z m -2.96741,1.95816 c -0.38781,-0.024 -0.72245,0.0793 -1.00386,0.31072 -0.27933,0.22877 -0.72944,0.73594 -1.3502,1.52118 l -0.93117,1.17799 6.39944,5.05874 1.31552,-1.66392 -2.88521,-2.28125 c 0.18123,-0.22925 0.33321,-0.33806 0.45656,-0.32619 0.12543,0.009 0.35962,0.14969 0.70218,0.42049 l 2.12649,1.68092 1.22146,-1.54539 -1.68752,-1.33413 c -0.51647,-0.40829 -0.84293,-0.6428 -0.97916,-0.70339 -0.13677,-0.0653 -0.31833,-0.0957 -0.54492,-0.0907 -0.2266,0.005 -0.51119,0.13971 -0.85326,0.40451 0.25321,-0.39071 0.34322,-0.71519 0.26985,-0.97444 -0.0734,-0.25925 -0.35904,-0.58588 -0.85706,-0.97959 -0.54546,-0.4312 -1.01188,-0.6563 -1.39914,-0.67556 z m -0.36867,1.89065 c 0.10643,0.0167 0.23598,0.0848 0.38815,0.20509 l 0.35157,0.27826 c 0.28195,0.22289 0.41913,0.39362 0.41142,0.5117 -0.008,0.11336 -0.0863,0.26329 -0.23421,0.45037 l -1.42289,-1.1249 c 0.15206,-0.19236 0.28766,-0.29886 0.40714,-0.32001 0.0304,-0.006 0.0633,-0.006 0.0988,-5.1e-4 z m -3.07905,2.53014 c -0.24468,-0.009 -0.50892,0.0372 -0.79292,0.13913 -0.4544,0.16316 -0.87456,0.4885 -1.25993,0.97599 -0.12207,0.15442 -0.22371,0.30869 -0.30929,0.46326 l -10.42391,13.22064 H 6.6714886 c -9.36579,0 -16.8114896,7.50979 -16.8114896,16.69225 0,4.59123 1.8853496,8.73561 3.8159096,10.71162 1.93056,1.97603 3.12985,2.60796 4.48484,2.60796 2.34527003,0 4.23351,-1.88796 4.23351,-4.23322 0,-1.18479 -0.48256,-2.25208 -1.79107997,-3.44172 -1.30852,-1.18964 -2.36783003,-3.11861 -2.36784003,-5.80181 l 4.8e-4,-0.0639 c 0.0492,-5.93368 4.9439,-7.98727 8.43567,-8.00473 h 4.4149904 c -1.3851404,2.43188 -2.1763804,5.23925 -2.1763804,8.2258 0,4.59123 1.8853604,8.73561 3.8159204,10.71162 1.93056,1.97603 3.12984,2.60796 4.48483,2.60796 2.34528,0 4.23304,-1.88796 4.23304,-4.23322 0,-1.1848 -0.48256,-2.25208 -1.79108,-3.44172 -1.30852,-1.18964 -2.36736,-3.11861 -2.36737,-5.80181 l 4.7e-4,-0.0639 c 0.0492,-5.93368 4.9439,-7.98727 8.43568,-8.00473 h 4.415 c -1.38515,2.43188 -2.17639,5.23925 -2.17639,8.2258 0,4.59123 1.88442,8.73508 3.81497,10.71111 1.93056,1.97603 3.13079,2.60847 4.48578,2.60847 2.34527,0 4.23304,-1.88795 4.23304,-4.23322 0,-1.18479 -0.48256,-2.25208 -1.79108,-3.44172 -1.30852,-1.18964 -2.36783,-3.1186 -2.36784,-5.80181 l 4.7e-4,-0.0639 c 0.0492,-5.93368 4.9439,-7.98727 8.43567,-8.00473 2.35785,-0.0175 4.22687,-2.02779 4.22687,-4.3234 0,-2.29562 -1.88541,-4.14357 -4.20929,-4.14305 0.006,5.3e-4 -0.006,-5.2e-4 -0.0176,-5.2e-4 h -16.53545 l 6.45312,-8.18251 -0.0109,-0.009 c 0.17071,-0.22456 0.27641,-0.45488 0.31261,-0.69205 0.0373,-0.25307 0.002,-0.51424 -0.10642,-0.78378 l 0.58055,0.20818 0.82808,-1.04761 -3.43489,-2.71514 -1.54023,1.94837 0.97203,0.76883 0.26557,-0.33598 0.75919,0.59982 c 0.29776,0.23539 0.48043,0.41606 0.54778,0.5421 0.0694,0.1234 0.0559,0.24568 -0.0399,0.36689 -0.0875,0.11067 -0.19052,0.14936 -0.30928,0.11543 -0.12139,-0.036 -0.32564,-0.16767 -0.61286,-0.39472 l -3.07098,-2.42812 c -0.32674,-0.2583 -0.51546,-0.43704 -0.56535,-0.53643 -0.0499,-0.0994 -0.0342,-0.20023 0.047,-0.303 0.0937,-0.11857 0.19966,-0.15723 0.31689,-0.11594 0.11722,0.0413 0.35871,0.20669 0.72498,0.49624 l 0.58103,0.45913 1.31553,-1.66391 -0.27651,-0.21849 c -0.52437,-0.41454 -0.9625,-0.68164 -1.31362,-0.80078 -0.13265,-0.0455 -0.27221,-0.0708 -0.41903,-0.0763 z" />
        <path
           id="path855"
           style="fill:#f9f9f9;fill-opacity:1;stroke:none;stroke-width:0.0106082;stroke-linecap:round;stroke-linejoin:round;paint-order:markers fill stroke;stop-color:#000000"
           d="m 242.64482,183.41048 -2.59386,0.007 0.49644,6.7097 2.69764,-0.008 -0.0997,-1.34267 -1.14172,0.003 -0.10914,-1.47545 0.97181,-0.002 -0.0943,-1.27635 -0.97181,0.002 -0.0943,-1.27206 1.03821,-0.003 z m -3.21842,0.009 -2.02872,0.005 -0.12278,3.13374 -0.34075,-1.70661 c -0.107,-0.54684 -0.20482,-1.02179 -0.2938,-1.425 l -2.0142,0.005 0.49672,6.70942 1.35983,-0.004 -0.32747,-4.42578 0.90015,4.42399 0.96456,-0.002 0.20805,-4.53083 0.33504,4.52949 1.35985,-0.004 z m -6.74753,0.019 -2.59386,0.007 0.49644,6.7097 2.69763,-0.008 -0.0996,-1.34265 -1.14172,0.003 -0.10916,-1.47546 0.97183,-0.002 -0.0945,-1.27668 -0.97158,0.003 -0.0943,-1.27206 1.0385,-0.003 z m 1.89553,5.33744 -1.12693,0.003 0.10136,1.36771 1.12691,-0.003 z m -5.04002,-5.32865 -2.59412,0.008 0.49671,6.70942 2.69735,-0.008 -0.0994,-1.34292 -1.1417,0.003 -0.10916,-1.47546 0.97182,-0.002 -0.0948,-1.27638 -0.97158,0.003 -0.094,-1.27233 1.03822,-0.003 z m -3.91688,0.0114 -1.55564,0.005 0.49648,6.70915 2.5018,-0.007 -0.0997,-1.34265 -0.94588,0.002 z m -2.54842,0.47743 c -0.14696,-0.16334 -0.31783,-0.2767 -0.51287,-0.3404 -0.25761,-0.0849 -0.63169,-0.12677 -1.12192,-0.1254 l -1.55176,0.005 0.49648,6.70912 1.79944,-0.005 c 0.62571,-0.002 1.03669,-0.0429 1.23277,-0.12356 0.19607,-0.0807 0.33168,-0.23042 0.40667,-0.44894 0.0774,-0.21852 0.0994,-0.55441 0.0659,-1.00749 l -0.046,-0.62119 c -0.0323,-0.43651 -0.12034,-0.75962 -0.26398,-0.96922 -0.14384,-0.21239 -0.39892,-0.364 -0.76533,-0.45415 0.31659,-0.0838 0.52325,-0.20284 0.62018,-0.35786 0.0995,-0.15495 0.13474,-0.42865 0.10569,-0.82097 -0.0429,-0.58019 -0.15176,-1.00001 -0.32617,-1.25926 -0.0436,-0.0655 -0.0904,-0.12538 -0.13884,-0.1803 z m -1.1409,0.77513 c 0.0247,0.027 0.0473,0.0618 0.0677,0.10461 0.0406,0.0828 0.0688,0.22908 0.0844,0.43904 0.0295,0.39784 0.0263,0.63973 -0.009,0.72547 -0.0358,0.083 -0.12974,0.1245 -0.28247,0.12494 -0.0369,6e-5 -0.0886,0.002 -0.1549,0.005 l -0.11062,-1.4922 c 0.16033,0.002 0.2687,0.0147 0.32453,0.0366 0.0292,0.0109 0.056,0.0296 0.0808,0.0564 z m 0.21908,2.54548 c 0.0587,0.0606 0.0985,0.23482 0.11974,0.52213 l 0.0464,0.62551 c 0.02,0.27075 0.002,0.44087 -0.0547,0.51011 -0.054,0.0693 -0.1904,0.10852 -0.40903,0.11742 l -0.13896,-1.87737 c 0.23218,0.008 0.37787,0.0415 0.43656,0.1022 z m -3.42147,-3.77884 -2.25023,0.006 -0.29432,6.71165 1.61113,-0.005 0.003,-1.2065 0.55789,-0.002 0.16667,1.20581 1.59273,-0.005 z m -0.94915,1.50334 c 0.16142,1.11591 0.30927,2.05352 0.44433,2.81306 l -0.53194,0.002 c -0.005,-0.5941 0.0249,-1.5321 0.0876,-2.81445 z m -2.54403,-0.90882 c -0.182,-0.26201 -0.40571,-0.42463 -0.67156,-0.48743 -0.26336,-0.0629 -0.76222,-0.0931 -1.49633,-0.091 l -1.10125,0.003 0.49671,6.70943 1.55565,-0.005 -0.22368,-3.02523 c 0.21433,-7.9e-4 0.3492,0.0416 0.40481,0.12709 0.0582,0.0854 0.10027,0.30816 0.12686,0.66732 l 0.16508,2.22946 1.44466,-0.004 -0.13091,-1.76935 c -0.0401,-0.5415 -0.0781,-0.87172 -0.11397,-0.99043 -0.0336,-0.1215 -0.10854,-0.25397 -0.22511,-0.39732 -0.11656,-0.14335 -0.33202,-0.25767 -0.64628,-0.34246 0.3373,-0.0368 0.55695,-0.14495 0.65945,-0.32486 0.10249,-0.17993 0.13452,-0.531 0.0959,-1.05316 -0.0423,-0.57189 -0.15574,-0.98742 -0.34001,-1.24664 z m -1.20167,0.73005 c 0.0445,0.0771 0.0731,0.19536 0.0848,0.3549 l 0.0271,0.36878 c 0.0219,0.29561 -7.7e-4,0.47131 -0.0683,0.52676 -0.065,0.0529 -0.18492,0.0792 -0.35983,0.0796 l -0.11038,-1.49187 c 0.17984,-4.1e-4 0.30523,0.0323 0.37665,0.0984 0.0191,0.016 0.0356,0.0371 0.05,0.0633 z m -2.9076,-0.68801 c -0.11814,-0.16217 -0.27577,-0.30868 -0.4733,-0.4394 -0.31609,-0.20911 -0.70215,-0.31319 -1.15789,-0.3119 -0.14437,6.4e-4 -0.27837,0.0139 -0.40448,0.0379 l -12.34598,0.0528 -5.41908,-6.94334 c -4.70701,-6.03096 -12.48618,-6.98271 -17.42251,-2.28396 -2.46816,2.34936 -3.74856,5.68412 -3.84059,7.93842 -0.092,2.2543 0.171,3.34994 0.85199,4.22248 1.17867,1.51019 3.14259,1.76002 4.40336,0.55993 0.63692,-0.60627 0.96814,-1.46316 0.95005,-2.9145 -0.0181,-1.45136 0.4865,-3.12055 1.92893,-4.49358 l 0.0346,-0.0324 c 3.21457,-3.00461 6.77849,-0.90357 8.54275,1.33596 l 2.21888,2.84299 c -2.00348,0.35246 -3.91032,1.27952 -5.51584,2.80776 -2.46816,2.34936 -3.74857,5.68413 -3.84059,7.93842 -0.092,2.25431 0.171,3.34995 0.85198,4.22246 1.17867,1.51021 3.14236,1.75974 4.40313,0.55965 0.63693,-0.60628 0.96815,-1.46315 0.95004,-2.91451 -0.0181,-1.45135 0.48675,-3.12024 1.92917,-4.49326 l 0.0346,-0.0324 c 3.21456,-3.00463 6.77849,-0.90359 8.54275,1.33596 l 2.21888,2.84297 c -2.00348,0.35247 -3.91033,1.27951 -5.51585,2.80775 -2.46816,2.34937 -3.74876,5.68326 -3.84079,7.93755 -0.092,2.25431 0.1712,3.35081 0.85219,4.22335 1.17867,1.51019 3.14235,1.75973 4.40313,0.55964 0.63692,-0.60627 0.96814,-1.46315 0.95004,-2.9145 -0.0182,-1.45136 0.48649,-3.12055 1.92892,-4.49358 l 0.0346,-0.0324 c 3.21457,-3.00463 6.77851,-0.90358 8.54276,1.33596 1.19441,1.50936 3.21444,1.68421 4.44851,0.50953 1.23408,-1.1747 1.27995,-3.3344 0.11175,-4.83055 0.003,0.004 -0.003,-0.004 -0.009,-0.0116 l -8.31032,-10.6478 7.64195,-0.0317 -6.4e-4,-0.0116 c 0.20652,-0.005 0.38346,-0.0548 0.52915,-0.15282 0.15479,-0.10548 0.27745,-0.26185 0.36786,-0.46959 l 0.17986,0.48037 0.97935,-0.003 -0.26669,-3.60122 -1.82149,0.005 0.0752,1.01935 0.3141,-7.9e-4 0.0591,0.7958 c 0.0232,0.3122 0.0178,0.52227 -0.0161,0.63014 -0.0314,0.10783 -0.10398,0.16171 -0.21728,0.16205 -0.10347,1.1e-4 -0.17605,-0.0463 -0.2175,-0.1401 -0.0416,-0.0966 -0.0735,-0.29549 -0.0958,-0.59662 l -0.23808,-3.22001 c -0.0254,-0.34257 -0.0241,-0.55555 0.004,-0.63856 0.0284,-0.083 0.0905,-0.12447 0.18651,-0.12477 0.11082,-7e-5 0.18487,0.0481 0.22159,0.14474 0.0366,0.0966 0.0692,0.33674 0.0976,0.72076 l 0.0452,0.60909 1.55564,-0.004 -0.0215,-0.28986 c -0.0406,-0.54979 -0.11729,-0.96859 -0.22971,-1.25566 -0.0423,-0.10864 -0.0987,-0.21151 -0.16958,-0.30887 z" />
      </g>
    </g>
    <path
       id="rect835-1-3-2-3-5"
       style="fill:#bc5fd3;fill-opacity:1;stroke:none;stroke-width:0.0136572;stroke-linecap:round;stroke-linejoin:round;paint-order:markers fill stroke;stop-color:#000000"
       d="m 109.67343,101.56725 -17.095486,0.22566 -6.787555,-8.37842 c -5.89558,-7.277385 -16.417863,-8.335295 -23.55279,-2.555123 -3.567464,2.890085 -5.600892,6.96366 -5.921051,9.707593 -0.32016,2.74395 -0.05627,4.07382 0.796669,5.12667 1.476301,1.82232 4.131859,2.10087 5.954166,0.62458 0.920602,-0.7458 1.446073,-1.79257 1.546757,-3.55817 0.100683,-1.76559 0.932659,-3.802866 3.017544,-5.491894 l 0.05014,-0.03994 c 4.641541,-3.696901 9.318285,-1.186305 11.529849,1.515868 l 2.7793,3.430716 c -2.761528,0.45453 -5.441158,1.60677 -7.761758,3.48674 -3.567463,2.89008 -5.600897,6.96367 -5.921049,9.7076 -0.32016,2.74394 -0.05627,4.07382 0.796669,5.12667 1.476299,1.82231 4.13186,2.10087 5.954167,0.62457 0.920609,-0.7458 1.446072,-1.79257 1.546755,-3.55816 0.100684,-1.7656 0.932659,-3.80287 3.017545,-5.4919 l 0.05014,-0.0399 c 4.64154,-3.6969 9.318281,-1.18631 11.529849,1.51587 l 2.779286,3.43069 c -2.761528,0.45453 -5.441158,1.60677 -7.761759,3.48674 -3.567463,2.89009 -5.600811,6.96294 -5.920978,9.70688 -0.320162,2.74395 -0.05634,4.07455 0.7966,5.1274 1.4763,1.82231 4.13185,2.10087 5.954165,0.62457 0.920602,-0.7458 1.446075,-1.79257 1.546759,-3.55816 0.100684,-1.7656 0.932647,-3.80287 3.017541,-5.4919 l 0.05014,-0.0399 c 4.641541,-3.6969 9.318285,-1.18631 11.529845,1.51587 1.49782,1.82107 4.23608,2.0078 6.01981,0.56275 1.78374,-1.44504 2.03283,-4.073 0.5696,-5.87837 0.003,0.005 -0.003,-0.005 -0.0107,-0.014 l -10.408703,-12.84829 10.420233,-0.13705 z" />
    <text
       xml:space="preserve"
       style="font-size:21.1667px;line-height:1.25;font-family:Impact;-inkscape-font-specification:Impact;fill:#bc5fd3;fill-opacity:1;stroke-width:0.264583"
       x="90.646408"
       y="102.85976"
       id="text879"><tspan
         sodipodi:role="line"
         id="tspan877"
         x="90.646408"
         y="102.85976"
         style="font-size:21.1667px;fill:#bc5fd3;fill-opacity:1;stroke-width:0.264583">Grablee.me</tspan></text>
    <rect
       style="fill:#bc5fd3;fill-opacity:1;stroke-width:0.312358;stroke-linecap:round;stroke-linejoin:round;paint-order:markers fill stroke;stop-color:#000000"
       id="rect881"
       width="85.733513"
       height="8.4690895"
       x="103.64839"
       y="101.56725"
       ry="0" />
    <text
       xml:space="preserve"
       style="font-size:21.1667px;line-height:1.25;font-family:Impact;-inkscape-font-specification:Impact;fill:#bc5fd3;fill-opacity:1;stroke-width:0.264583"
       x="277.56934"
       y="79.742111"
       id="text879-4-6"><tspan
         sodipodi:role="line"
         id="tspan877-8-0"
         x="277.56934"
         y="79.742111"
         style="font-size:21.1667px;fill:#bc5fd3;fill-opacity:1;stroke-width:0.264583">Grablee.me</tspan></text>
    <g
       id="g957"
       style="fill:#f9f9f9;fill-opacity:1">
      <path
         id="rect835-1-3-2-3-5-7"
         style="fill:#f9f9f9;fill-opacity:1;stroke:none;stroke-width:0.00475254;stroke-linecap:round;stroke-linejoin:round;paint-order:markers fill stroke;stop-color:#000000"
         d="m 285.18528,42.435979 -5.67216,0.08235 -2.25207,-3.057901 c -1.95611,-2.65605 -5.44734,-3.04216 -7.81467,-0.932551 -1.18366,1.054803 -1.85834,2.541551 -1.96456,3.543013 -0.10623,1.001469 -0.0187,1.486836 0.26433,1.871098 0.48982,0.665099 1.37092,0.766762 1.97555,0.227956 0.30545,-0.272199 0.4798,-0.654241 0.51321,-1.298638 0.0334,-0.644394 0.30944,-1.387944 1.0012,-2.004395 l 0.0165,-0.01457 c 1.54004,-1.34927 3.09175,-0.432971 3.82553,0.553252 l 0.92215,1.252118 c -0.91625,0.165892 -1.80534,0.586429 -2.57529,1.272568 -1.18368,1.054802 -1.85835,2.541554 -1.96457,3.543016 -0.10623,1.001465 -0.0187,1.486837 0.26433,1.871099 0.48983,0.665094 1.37092,0.766761 1.97555,0.22795 0.30545,-0.272196 0.4798,-0.65424 0.5132,-1.298633 0.0334,-0.644398 0.30946,-1.387947 1.00121,-2.004398 l 0.0165,-0.01457 c 1.54004,-1.34927 3.09176,-0.432971 3.82554,0.553253 l 0.92215,1.252111 c -0.91626,0.165891 -1.80534,0.586427 -2.5753,1.272567 -1.18366,1.054806 -1.85832,2.541288 -1.96456,3.542753 -0.10622,1.001469 -0.0187,1.487103 0.26431,1.871365 0.48984,0.665095 1.37093,0.766761 1.97556,0.227951 0.30545,-0.272197 0.4798,-0.65424 0.5132,-1.298634 0.0334,-0.644396 0.30945,-1.387945 1.00121,-2.004397 l 0.0166,-0.01457 c 1.54003,-1.349271 3.09174,-0.432972 3.82553,0.553252 0.49696,0.664641 1.4055,0.732794 1.99733,0.205389 0.59183,-0.527402 0.67448,-1.486538 0.18899,-2.145449 7.8e-4,0.0018 -7.8e-4,-0.0018 -0.004,-0.0051 l -3.45354,-4.689285 3.45737,-0.05002 z" />
      <text
         xml:space="preserve"
         style="font-size:21.1667px;line-height:1.25;font-family:Impact;-inkscape-font-specification:Impact;fill:#f9f9f9;fill-opacity:1;stroke-width:0.264583"
         x="277.16843"
         y="41.388931"
         id="text879-4"><tspan
           sodipodi:role="line"
           id="tspan877-8"
           x="277.16843"
           y="41.388931"
           style="font-size:21.1667px;fill:#f9f9f9;fill-opacity:1;stroke-width:0.264583">Grablee.me</tspan></text>
      <rect
         style="fill:#f9f9f9;fill-opacity:1;stroke-width:1.29469;stroke-linecap:round;stroke-linejoin:round;paint-order:markers fill stroke;stop-color:#000000"
         id="rect951"
         width="93.491142"
         height="3.0735998"
         x="284.41687"
         y="42.435978" />
    </g>
  </g>
</svg>
