<?xml version="1.0" encoding="iso-8859-1"?>
<!-- Generator: Adobe Illustrator 19.0.0, SVG Export Plug-In . SVG Version: 6.00 Build 0)  -->
<svg version="1.1" id="Capa_1" xmlns="http://www.w3.org/2000/svg" xmlns:xlink="http://www.w3.org/1999/xlink" x="0px" y="0px"
	 viewBox="0 0 90.614 90.614" style="enable-background:new 0 0 90.614 90.614;" xml:space="preserve">
<g>
	<path fill="#f9f9f9" d="M11.209,61.389h68.115V15.865H11.209V61.389z M23.697,54.749l8.762-13.664l8.763,13.664H23.697z M43.608,54.749l4.67-7.283
		l4.672,7.283H43.608z M73.325,21.865v33.524H60.489l-12.21-19.038l-5.863,9.144L32.46,29.972l-15.25,23.78V21.865H73.325z"/>
	<path  fill="#f9f9f9" d="M84.089,4.701H6.526C2.927,4.701,0,7.628,0,11.225v68.164c0,3.598,2.928,6.524,6.526,6.524h77.563
		c3.598,0,6.525-2.927,6.525-6.524V11.225C90.615,7.627,87.687,4.701,84.089,4.701z M84.615,79.389c0,0.289-0.235,0.524-0.525,0.524
		H6.526C6.236,79.913,6,79.678,6,79.389V11.225c0-0.289,0.236-0.524,0.526-0.524h77.563c0.29,0,0.525,0.235,0.525,0.524
		L84.615,79.389L84.615,79.389z"/>
	<path fill="#f9f9f9" d="M62.035,43.493c5.158,0,9.355-4.197,9.355-9.355s-4.197-9.354-9.355-9.354s-9.354,4.196-9.354,9.354
		C52.68,39.296,56.876,43.493,62.035,43.493z M62.035,30.783c1.851,0,3.355,1.505,3.355,3.354c0,1.85-1.505,3.355-3.355,3.355
		c-1.85,0-3.354-1.505-3.354-3.355C58.68,32.287,60.185,30.783,62.035,30.783z"/>
</g>
<g>
</g>
<g>
</g>
<g>
</g>
<g>
</g>
<g>
</g>
<g>
</g>
<g>
</g>
<g>
</g>
<g>
</g>
<g>
</g>
<g>
</g>
<g>
</g>
<g>
</g>
<g>
</g>
<g>
</g>
</svg>
