<svg xmlns="http://www.w3.org/2000/svg" xmlns:xlink="http://www.w3.org/1999/xlink" width="60" height="60" viewBox="0 0 60 60">
  <defs>
    <clipPath id="clip-path">
      <rect id="Rectangle_31" data-name="Rectangle 31" width="60" height="60" transform="translate(5 1118)" fill="#fff" stroke="#707070" stroke-width="1"/>
    </clipPath>
  </defs>
  <g id="Mask_Group_3" data-name="Mask Group 3" transform="translate(-5 -1118)" clip-path="url(#clip-path)">
    <g id="cat-svgrepo-com" transform="translate(5 1123.032)">
      <g id="Group_8" data-name="Group 8" transform="translate(6.99 2.013)">
        <path id="Path_26" data-name="Path 26" d="M33.289,21.059c1.016.331,3.923,1.518,4.991,1.518a10.167,10.167,0,0,0,3.147-.5c6.263-2.044,9.844-3.481,14.083-3.261a23.81,23.81,0,0,0-36.11-.053,44.7,44.7,0,0,1,13.888,2.3" transform="translate(-13.48 -10.5)" fill="#f0c419"/>
        <path id="Path_27" data-name="Path 27" d="M50.43,43.578c-7.972.846-11.642-4.143-12.166-7.685s-4.8-4.392-4.8-4.392-2.413.849-2.937,4.392-4.2,8.532-12.166,7.685c-3.675-.391-6.147-1.447-7.853-3.019C10.6,53.819,21.283,65.72,34.456,65.72A24.057,24.057,0,0,0,58.414,41.565c0-.791-.04-1.572-.114-2.343-1.58,3.1-2.53,3.789-7.87,4.356" transform="translate(-10.504 -17.409)" fill="#f0c419"/>
      </g>
      <g id="Group_9" data-name="Group 9" transform="translate(0 0)">
        <path id="Path_28" data-name="Path 28" d="M85.487,49.621a1,1,0,0,1-.784-.381,7.734,7.734,0,0,0-4.423-2.246,1.008,1.008,0,0,1-.765-1.2.994.994,0,0,1,1.187-.771c1.783.387,4.195,1.218,5.567,2.964a1.013,1.013,0,0,1-.164,1.414.984.984,0,0,1-.619.217" transform="translate(-26.592 -19.839)" fill="#b79321"/>
        <path id="Path_29" data-name="Path 29" d="M82.981,59.442a1,1,0,0,1-.79-.389c-1.383-1.8-4.736-3.6-9.118-3.6a.369.369,0,0,0-.075,0,1.006,1.006,0,0,1,0-2.013h.076c4.453,0,8.646,1.715,10.7,4.38a1.013,1.013,0,0,1-.177,1.412.988.988,0,0,1-.612.211" transform="translate(-24.086 -22.615)" fill="#b79321"/>
        <path id="Path_30" data-name="Path 30" d="M1,50.235a.983.983,0,0,1-.619-.217A1.013,1.013,0,0,1,.215,48.6C1.587,46.858,4,46.027,5.781,45.639a.994.994,0,0,1,1.187.771,1.007,1.007,0,0,1-.765,1.2,7.728,7.728,0,0,0-4.422,2.246A1,1,0,0,1,1,50.235" transform="translate(0 -20.041)" fill="#b79321"/>
        <path id="Path_31" data-name="Path 31" d="M1,60.056a.989.989,0,0,1-.612-.211,1.013,1.013,0,0,1-.177-1.412c2.064-2.68,6.323-4.4,10.775-4.38a1.007,1.007,0,0,1,0,2.013.609.609,0,0,1-.075,0c-4.383,0-7.735,1.8-9.118,3.6a1,1,0,0,1-.79.389" transform="translate(0 -22.817)" fill="#b79321"/>
        <path id="Path_32" data-name="Path 32" d="M34.5,60c1.235,3.516,4.076,6.039,7.986,6.039S49.234,63.516,50.469,60A16.846,16.846,0,0,1,34.5,60" transform="translate(-11.54 -24.774)" fill="#b79321"/>
        <path id="Path_33" data-name="Path 33" d="M70.155,17.826c.732.038,1.424.1,2.083.167L76.074,7.5,63.216,12.276a24.074,24.074,0,0,1,6.94,5.55" transform="translate(-21.147 -7.5)" fill="#b79321"/>
        <path id="Path_34" data-name="Path 34" d="M16.421,17.774a24.058,24.058,0,0,1,6.9-5.5L10.459,7.5l3.776,10.334c.7-.038,1.424-.06,2.185-.06" transform="translate(-3.499 -7.5)" fill="#b79321"/>
      </g>
      <path id="Path_35" data-name="Path 35" d="M31.948,25.613h0a10.167,10.167,0,0,1-3.147-.5C13.353,20.07,3,24.893,3,24.893v3.384c2.1.053,2.518,2.538,2.518,2.538,1,6.609,3.356,10.152,11.328,11a10.756,10.756,0,0,0,12.166-8.779c.524-3.543,2.937-3.385,2.937-3.385s2.413-.158,2.937,3.385a10.757,10.757,0,0,0,12.166,8.779c7.972-.846,10.332-4.389,11.328-11,0,0,.42-2.485,2.518-2.538V24.893s-10.354-4.823-25.8.218a10.165,10.165,0,0,1-3.147.5" transform="translate(-1.003 -12.538)" fill="#2c3e50"/>
      <path id="Path_36" data-name="Path 36" d="M13,33.532a.991.991,0,0,1-.706-.295,1.011,1.011,0,0,1,0-1.423l2.995-3.019a.991.991,0,0,1,1.411,0,1.011,1.011,0,0,1,0,1.423L13.7,33.237a.992.992,0,0,1-.706.295" transform="translate(-4.014 -14.409)" fill="#546777"/>
    </g>
  </g>
</svg>
