<?xml version="1.0" encoding="UTF-8" standalone="no"?>
<svg
   xmlns:dc="http://purl.org/dc/elements/1.1/"
   xmlns:cc="http://creativecommons.org/ns#"
   xmlns:rdf="http://www.w3.org/1999/02/22-rdf-syntax-ns#"
   xmlns:svg="http://www.w3.org/2000/svg"
   xmlns="http://www.w3.org/2000/svg"
   xmlns:sodipodi="http://sodipodi.sourceforge.net/DTD/sodipodi-0.dtd"
   xmlns:inkscape="http://www.inkscape.org/namespaces/inkscape"
   width="560"
   height="140"
   viewBox="0 0 148.16667 37.04167"
   version="1.1"
   id="svg8"
   inkscape:version="1.0.2 (e86c870879, 2021-01-15, custom)"
   sodipodi:docname="logo-white.svg">
  <defs
     id="defs2" />
  <sodipodi:namedview
     id="base"
     pagecolor="#511b51"
     bordercolor="#666666"
     borderopacity="1.0"
     inkscape:pageopacity="0"
     inkscape:pageshadow="2"
     inkscape:zoom="0.24748738"
     inkscape:cx="-87.629211"
     inkscape:cy="-341.68521"
     inkscape:document-units="mm"
     inkscape:current-layer="layer1"
     inkscape:document-rotation="0"
     showgrid="false"
     inkscape:snap-center="true"
     inkscape:snap-object-midpoints="true"
     inkscape:snap-midpoints="true"
     showguides="false"
     inkscape:window-width="1566"
     inkscape:window-height="1033"
     inkscape:window-x="120"
     inkscape:window-y="38"
     inkscape:window-maximized="0"
     fit-margin-top="0"
     fit-margin-left="0"
     fit-margin-right="0"
     fit-margin-bottom="0"
     units="px" />
  <metadata
     id="metadata5">
    <rdf:RDF>
      <cc:Work
         rdf:about="">
        <dc:format>image/svg+xml</dc:format>
        <dc:type
           rdf:resource="http://purl.org/dc/dcmitype/StillImage" />
        <dc:title></dc:title>
      </cc:Work>
    </rdf:RDF>
  </metadata>
  <g
     inkscape:label="Layer 1"
     inkscape:groupmode="layer"
     id="layer1"
     transform="translate(-42.457062,-172.71584)">
    <text
       xml:space="preserve"
       style="font-size:10.5833px;line-height:1.25;font-family:'Gloria Hallelujah';-inkscape-font-specification:'Gloria Hallelujah, Normal';stroke-width:0.264583"
       x="26.080357"
       y="225.2738"
       id="text1391"><tspan
         sodipodi:role="line"
         id="tspan1389"
         x="26.080357"
         y="225.2738"
         style="stroke-width:0.264583" /></text>
    <text
       xml:space="preserve"
       style="font-size:10.5833px;line-height:1.25;font-family:'Gloria Hallelujah';-inkscape-font-specification:'Gloria Hallelujah, Normal';stroke-width:0.264583"
       x="-76.729164"
       y="281.59225"
       id="text1395"><tspan
         sodipodi:role="line"
         id="tspan1393"
         x="-76.729164"
         y="281.59225"
         style="stroke-width:0.264583" /></text>
    <path
       id="rect835-9"
       style="fill:#f9f9f9;fill-opacity:1;stroke:#000000;stroke-width:0.0136572;stroke-linecap:round;stroke-linejoin:round;paint-order:markers fill stroke;stop-color:#000000"
       d="m 97.936397,174.61259 c -4.68984,9.6e-4 -9.3796,0.004 -14.06942,0.004 0.006,6e-4 -21.115509,0.0393 -21.115509,0.0393 -9.74713,-0.0475 -16.885791,7.4868 -16.885791,16.66926 0,9.18246 7.540155,16.57419 16.905945,16.57419 0.0118,0 0.02389,-0.001 0.01809,-5.2e-4 2.32388,5.2e-4 4.208529,-1.84729 4.208529,-4.1429 0,-2.29562 -1.83777,-4.04892 -4.19561,-4.06642 -3.491769,-0.0175 -8.416979,-2.32783 -8.466149,-8.26151 l -5.17e-4,-0.0641 c 10e-6,-5.7609 4.945537,-8.68109 8.466666,-8.78447 h 8.027936 c -1.50164,2.47809 -2.364715,5.37494 -2.364715,8.47803 0,9.18245 7.539645,16.57418 16.905425,16.57418 0.0118,0 0.0239,-9.9e-4 0.0181,-5.1e-4 2.32388,5.1e-4 4.20905,-1.84728 4.20905,-4.1429 0,-2.29562 -1.83777,-4.04892 -4.19561,-4.06642 -3.49177,-0.0175 -8.4175,-2.32785 -8.46667,-8.26151 l -5.2e-4,-0.0641 c 1e-5,-4.83845 3.48873,-7.67183 6.6921,-8.51679 h 9.96839 c -1.60369,2.53587 -2.5306,5.53037 -2.5306,8.74571 0,9.18245 7.54017,16.57419 16.905943,16.57419 0.0114,-7e-5 0.0226,-9.8e-4 0.017,-5.2e-4 2.32389,5.2e-4 4.20905,-1.84729 4.20905,-4.1429 0,-2.29562 -1.83777,-4.04944 -4.19561,-4.06694 -3.49177,-0.0175 -8.417503,-2.32732 -8.466673,-8.26099 l -5.1e-4,-0.0646 c 1e-5,-5.7609 4.946053,-8.68109 8.467183,-8.78447 h 0.84336 v 3.94963 c 0,0.72904 0.0714,1.29216 0.21497,1.68982 0.1436,0.39213 0.4087,0.7099 0.7953,0.95291 0.39214,0.24301 0.88938,0.36432 1.49139,0.36432 0.34795,0 0.67944,-0.0659 0.99425,-0.19844 0.32034,-0.13255 0.62386,-0.32901 0.91106,-0.58859 v 0.82889 c 0,0.47498 -0.0412,0.78674 -0.12403,0.93586 -0.0828,0.14912 -0.25133,0.22376 -0.50539,0.22376 -0.35347,0 -0.5302,-0.24313 -0.5302,-0.72916 h -3.24735 c 0.0221,1.06042 0.35581,1.77008 1.00201,2.12907 0.64619,0.36452 1.50237,0.54674 2.56831,0.54674 0.86712,0 1.58501,-0.0994 2.15388,-0.29817 0.57439,-0.19331 1.0217,-0.47762 1.34204,-0.85318 0.32033,-0.37005 0.50581,-0.72075 0.55552,-1.05214 0.0552,-0.3369 0.0827,-1.07675 0.0827,-2.22001 v -5.68131 h 1.19269 v 8.20777 h 3.34708 v -4.34082 c 0,-1.06595 0.0335,-1.7454 0.0997,-2.03812 0.0663,-0.29824 0.24301,-0.5304 0.53021,-0.69609 0.2872,-0.16569 0.73725,-0.24856 1.3503,-0.24856 v -0.88418 h 0.62839 c -0.019,0.22806 -0.032,0.46877 -0.032,0.73535 v 0.73743 h 3.13986 v -1.15187 c 0,-0.13228 0.006,-0.21049 0.009,-0.32091 h 1.04439 c 0.004,0.10688 0.007,0.21931 0.007,0.34571 0,0.45841 -0.0384,0.76245 -0.11576,0.91158 -0.0773,0.14912 -0.66567,0.43891 -1.76475,0.86971 -1.02728,0.39766 -1.67105,0.74562 -1.93063,1.04386 -0.25958,0.29825 -0.38912,0.85863 -0.38912,1.68156 v 0.9033 c 0,1.11012 0.24313,1.83076 0.72915,2.16214 0.49155,0.32586 1.02997,0.48886 1.61541,0.48886 0.44736,0 0.83102,-0.0966 1.15135,-0.2899 0.32586,-0.19883 0.59095,-0.49464 0.7953,-0.88677 v 0.97772 h 3.25613 v -5.5175 c 0,-1.1574 -0.0263,-2.0348 -0.0734,-2.69027 h 1.22473 v 8.20777 h 3.13159 l 0.21549,-0.82838 c 0.28168,0.34243 0.59069,0.59928 0.9276,0.7705 0.34242,0.17121 0.71012,0.25683 1.10226,0.25683 0.54677,0 1.01879,-0.14379 1.41645,-0.43098 0.39765,-0.29272 0.64902,-0.6352 0.75395,-1.02733 0.11047,-0.39765 0.16537,-0.99921 0.16537,-1.80557 v -4.95422 c 0,-0.0713 -0.002,-0.10981 -0.003,-0.17674 h 1.10484 v 8.19589 h 3.4463 v -8.19589 h 1.15704 c -0.0367,0.30349 -0.0553,0.63561 -0.0553,0.99684 v 3.20601 c 0,0.8174 0.0582,1.44144 0.17415,1.87223 0.11598,0.42528 0.32291,0.81768 0.62115,1.17668 0.30377,0.35347 0.72637,0.63229 1.26763,0.83664 0.54125,0.20435 1.16529,0.30644 1.87223,0.30644 0.72904,0 1.33386,-0.10209 1.81436,-0.30644 0.48603,-0.20988 0.88615,-0.52215 1.20096,-0.93638 0.31481,-0.41422 0.51402,-0.80337 0.59686,-1.16789 0.0884,-0.36452 0.1323,-0.88646 0.1323,-1.56579 v -0.81184 h -3.17294 v 1.44953 c 0,0.54677 -0.0439,0.9167 -0.13229,1.11 -0.0828,0.18779 -0.25134,0.28216 -0.50539,0.28216 -0.20435,0 -0.34265,-0.0719 -0.41445,-0.21549 -0.0718,-0.1436 -0.10749,-0.46411 -0.10749,-0.96118 v -2.37764 h 4.33256 v -1.4583 c 0,-0.5406 -0.0322,-1.01857 -0.0961,-1.43558 h 1.14566 c -0.0367,0.30349 -0.0553,0.63561 -0.0553,0.99684 v 3.20601 c 0,0.8174 0.0582,1.44144 0.17415,1.87223 0.11598,0.42528 0.32291,0.81768 0.62115,1.17668 0.30377,0.35347 0.72637,0.63229 1.26762,0.83664 0.54126,0.20435 1.16529,0.30644 1.87224,0.30644 0.72904,0 1.33386,-0.10209 1.81436,-0.30644 0.48603,-0.20988 0.88615,-0.52215 1.20096,-0.93638 0.31481,-0.41422 0.51402,-0.80337 0.59686,-1.16789 0.0884,-0.36452 0.1323,-0.88646 0.1323,-1.56579 v -0.81184 h -3.17294 v 1.44953 c 0,0.54677 -0.0439,0.9167 -0.13229,1.11 -0.0829,0.18779 -0.25134,0.28216 -0.5054,0.28216 -0.20435,0 -0.34264,-0.0719 -0.41444,-0.21549 -0.0718,-0.1436 -0.10749,-0.46411 -0.10749,-0.96118 v -2.37764 h 4.33256 v -1.4583 c 0,-0.5406 -0.0322,-1.01857 -0.0961,-1.43558 h 4.32118 v 8.19589 h 3.24786 v -7.62176 c 0,-0.29395 0.006,-0.39391 0.009,-0.57413 h 1.05627 c 0.0122,0.3156 0.0196,0.70721 0.0196,1.21233 v 6.98356 h 3.24735 v -7.16598 c 0,-0.41827 0.008,-0.75355 0.0207,-1.02991 h 1.0604 c 0.0132,0.27584 0.0207,0.61147 0.0207,1.02991 v 7.16598 h 3.24786 v -7.81245 c 0,-0.13744 -0.004,-0.2577 -0.006,-0.38344 h 1.11363 c -0.0367,0.30349 -0.0553,0.63561 -0.0553,0.99684 v 3.20601 c 0,0.8174 0.0576,1.44144 0.17364,1.87223 0.11598,0.42528 0.32342,0.81768 0.62166,1.17668 0.30377,0.35347 0.72585,0.63229 1.26711,0.83664 0.54125,0.20435 1.16581,0.30644 1.87275,0.30644 0.72904,0 1.33386,-0.10209 1.81436,-0.30644 0.48603,-0.20988 0.88615,-0.52215 1.20096,-0.93638 0.31481,-0.41422 0.5135,-0.80337 0.59635,-1.16789 0.0884,-0.36452 0.13281,-0.88646 0.13281,-1.56579 v -0.81184 h -3.17293 v 1.44953 c 0,0.54677 -0.0444,0.9167 -0.13281,1.11 -0.0828,0.18779 -0.25134,0.28216 -0.5054,0.28216 -0.20435,0 -0.34213,-0.0719 -0.41393,-0.21549 -0.0718,-0.1436 -0.108,-0.46411 -0.108,-0.96118 v -2.37764 h 4.33307 v -1.4583 c 0,-0.58655 -0.039,-1.09736 -0.11421,-1.53841 v -7.74837 h -46.70929 c -14.06911,-0.11992 -28.13875,-0.12949 -42.208283,-0.1266 z m 14.258563,7.96592 h 0.99736 c 5.5e-4,0.0445 0.002,0.0825 0.002,0.13022 v 3.40496 c 0,0.6241 -0.0329,1.02474 -0.0992,1.20148 -0.0663,0.17674 -0.21006,0.2651 -0.43098,0.2651 -0.19331,0 -0.32011,-0.0719 -0.38086,-0.21549 -0.0607,-0.14912 -0.0915,-0.46912 -0.0915,-0.96066 v -3.69539 c 0,-0.0474 0.002,-0.0861 0.003,-0.13022 z m 23.52157,0 h 1.00872 c 0.003,0.10464 0.006,0.21411 0.006,0.33744 v 4.63125 c 0,0.65171 -0.0335,1.06333 -0.0997,1.23455 -0.0608,0.17121 -0.19579,0.25683 -0.40566,0.25683 -0.20435,0 -0.34265,-0.0829 -0.41445,-0.24857 -0.0663,-0.16569 -0.0992,-0.54436 -0.0992,-1.13533 v -4.73873 c 0,-0.12432 0.002,-0.2322 0.005,-0.33744 z m 13.36662,0.0119 h 0.96428 c 0.002,0.095 0.005,0.19069 0.005,0.30076 v 0.80357 h -0.9772 v -0.80357 c 0,-0.1244 0.006,-0.19579 0.008,-0.30076 z m 8.67389,0 h 0.96428 c 0.002,0.095 0.005,0.19069 0.005,0.30076 v 0.80357 h -0.97721 v -0.80357 c 0,-0.1244 0.006,-0.19579 0.008,-0.30076 z m 24.88634,0 h 0.9648 c 0.002,0.095 0.005,0.19069 0.005,0.30076 v 0.80357 h -0.97772 v -0.80357 c 0,-0.1244 0.006,-0.19579 0.008,-0.30076 z m -54.77702,2.9683 v 2.26187 c 0,0.55231 -0.0329,0.89478 -0.0992,1.02733 -0.0607,0.12703 -0.1963,0.19069 -0.40618,0.19069 -0.22092,0 -0.37019,-0.0829 -0.44751,-0.24857 -0.0718,-0.16569 -0.10749,-0.53338 -0.10749,-1.10225 0,-0.49708 0.0412,-0.87798 0.12402,-1.14309 0.0884,-0.2651 0.40065,-0.59385 0.93638,-0.98598 z m 35.01027,2.4939 v 2.73369 h 2.52697 v -2.73369 z" />
  </g>
</svg>
